<svg width="1450" height="219" viewBox="0 0 1450 219" fill="none" xmlns="http://www.w3.org/2000/svg">
<path d="M1341 34C1341 16.3269 1355.33 2 1373 2H1539V92H1373C1355.33 92 1341 77.6731 1341 60V34Z" fill="#E7E7E7"/>
<path d="M1296 98C1296 80.3269 1310.33 66 1328 66H1494V156H1328C1310.33 156 1296 141.673 1296 124V98Z" fill="#B5B5B5"/>
<path d="M1252 161C1252 143.327 1266.33 129 1284 129H1450V219H1284C1266.33 219 1252 204.673 1252 187V161Z" fill="#D9F99D"/>
<circle cx="1312" cy="175" r="32" fill="black"/>
<path d="M1325.31 173.297L1319.67 178.217L1321.36 185.542C1321.45 185.925 1321.43 186.326 1321.29 186.695C1321.15 187.063 1320.91 187.383 1320.59 187.614C1320.27 187.846 1319.9 187.978 1319.5 187.995C1319.11 188.012 1318.72 187.913 1318.38 187.71L1311.99 183.835L1305.62 187.71C1305.28 187.913 1304.89 188.012 1304.5 187.995C1304.11 187.978 1303.73 187.846 1303.41 187.614C1303.09 187.383 1302.85 187.063 1302.71 186.695C1302.58 186.326 1302.55 185.925 1302.64 185.542L1304.33 178.225L1298.69 173.297C1298.39 173.04 1298.17 172.701 1298.07 172.321C1297.96 171.942 1297.97 171.54 1298.09 171.165C1298.21 170.791 1298.44 170.46 1298.75 170.216C1299.06 169.971 1299.43 169.823 1299.83 169.79L1307.26 169.146L1310.16 162.226C1310.31 161.863 1310.57 161.553 1310.89 161.335C1311.22 161.117 1311.61 161 1312 161C1312.39 161 1312.78 161.117 1313.11 161.335C1313.43 161.553 1313.69 161.863 1313.84 162.226L1316.75 169.146L1324.18 169.79C1324.57 169.823 1324.95 169.971 1325.25 170.216C1325.56 170.46 1325.79 170.791 1325.91 171.165C1326.04 171.54 1326.04 171.942 1325.94 172.321C1325.83 172.701 1325.62 173.04 1325.32 173.297H1325.31Z" fill="white"/>
<g clip-path="url(#clip0_43_10)">
<path d="M109 32C109 14.3269 94.6731 0 77 0H-89V90H77C94.6731 90 109 75.6731 109 58V32Z" fill="#E7E7E7"/>
<path d="M154 96C154 78.3269 139.673 64 122 64H-44V154H122C139.673 154 154 139.673 154 122V96Z" fill="#B5B5B5"/>
<path d="M198 159C198 141.327 183.673 127 166 127H1.52588e-05V217H166C183.673 217 198 202.673 198 185V159Z" fill="#BEF264"/>
<circle cx="32" cy="32" r="32" transform="matrix(-1 0 0 1 170 141)" fill="black"/>
<path d="M124.687 171.297L130.325 176.217L128.636 183.542C128.547 183.925 128.572 184.326 128.71 184.695C128.847 185.063 129.089 185.383 129.407 185.614C129.725 185.846 130.105 185.978 130.497 185.995C130.89 186.012 131.279 185.913 131.616 185.71L138.005 181.835L144.38 185.71C144.717 185.913 145.106 186.012 145.499 185.995C145.892 185.978 146.271 185.846 146.589 185.614C146.907 185.383 147.149 185.063 147.287 184.695C147.424 184.326 147.449 183.925 147.36 183.542L145.674 176.225L151.312 171.297C151.611 171.04 151.826 170.701 151.932 170.321C152.038 169.942 152.03 169.54 151.908 169.165C151.787 168.791 151.557 168.46 151.249 168.216C150.94 167.971 150.566 167.823 150.174 167.79L142.741 167.146L139.84 160.226C139.688 159.863 139.433 159.553 139.105 159.335C138.778 159.117 138.393 159 138 159C137.607 159 137.222 159.117 136.894 159.335C136.567 159.553 136.311 159.863 136.16 160.226L133.25 167.146L125.82 167.79C125.427 167.823 125.054 167.971 124.745 168.216C124.436 168.46 124.207 168.791 124.085 169.165C123.964 169.54 123.955 169.942 124.061 170.321C124.167 170.701 124.383 171.04 124.681 171.297H124.687Z" fill="white"/>
</g>
<defs>
<clipPath id="clip0_43_10">
<rect width="287" height="217" fill="white" transform="matrix(-1 0 0 1 198 0)"/>
</clipPath>
</defs>
</svg>
