<svg width="112" height="57" viewBox="0 0 112 57" fill="none" xmlns="http://www.w3.org/2000/svg">
<mask id="path-1-outside-1_105_341" maskUnits="userSpaceOnUse" x="0" y="0.496094" width="112" height="57" fill="black">
<rect fill="white" y="0.496094" width="112" height="57"/>
<path fill-rule="evenodd" clip-rule="evenodd" d="M69.6149 53.9952C62.6733 53.9474 56.5684 50.4585 52.9379 45.1735C52.8003 44.9731 52.6662 44.7703 52.5358 44.5649L55.9188 41.2599L60.502 36.7824C60.5824 37.0326 60.6729 37.2783 60.773 37.5192C61.4674 39.1904 62.6238 40.6262 64.0856 41.6695C65.6628 42.7952 67.5956 43.4639 69.6874 43.4783C72.2619 43.4961 74.7379 42.5001 76.5708 40.7096L89.0954 28.4741C90.9283 26.6835 91.9678 24.245 91.9854 21.6951C91.9914 20.833 91.8826 19.9966 91.6732 19.2002C90.9599 17.6253 89.8313 16.2752 88.4254 15.2865C86.8406 14.1721 84.9035 13.5169 82.8119 13.5169C80.2373 13.5169 77.7682 14.5299 75.9477 16.333L42.2712 49.6888C38.4595 53.4643 33.2896 55.5854 27.8989 55.5854C16.6733 55.5854 7.5733 46.572 7.5733 35.4533C7.5733 30.114 9.71481 24.9933 13.5266 21.2179L25.9666 8.89637C29.7784 5.1209 34.9482 2.99977 40.3389 2.99977C47.2806 2.99977 53.4095 6.44645 57.0764 11.7064C57.2153 11.9057 57.3508 12.1077 57.4826 12.3122L54.1225 15.6403L49.5702 20.1493C49.4881 19.8997 49.3959 19.6546 49.2942 19.4145C48.5882 17.7481 47.422 16.3203 45.9531 15.2871C44.3681 14.1723 42.4308 13.5169 40.3389 13.5169C37.7643 13.5169 35.2952 14.5299 33.4747 16.333L21.0348 28.6545C19.2142 30.4577 18.1915 32.9033 18.1915 35.4533C18.1915 36.1438 18.265 36.8172 18.4046 37.4664C19.1077 39.0354 20.2226 40.3842 21.6143 41.3773C23.1913 42.5027 25.1239 43.1712 27.2154 43.1856C29.7899 43.2033 32.2659 42.2074 34.0988 40.4168L68.0044 7.29392C71.8421 3.54479 77.0264 1.45943 82.417 1.49658C93.6424 1.57395 102.68 10.6499 102.603 21.7682C102.567 27.1075 100.39 32.2132 96.5521 35.9623L84.0275 48.1978C80.1898 51.9469 75.0055 54.0324 69.6149 53.9952ZM15.461 10.2304C15.461 14.2238 12.2238 17.461 8.23052 17.461C4.23721 17.461 1 14.2238 1 10.2304C1 6.23714 4.23721 2.99992 8.23052 2.99992C12.2238 2.99992 15.461 6.23714 15.461 10.2304ZM103.689 55.9999C107.682 55.9999 110.919 52.7627 110.919 48.7694C110.919 44.7761 107.682 41.5389 103.689 41.5389C99.6952 41.5389 96.458 44.7761 96.458 48.7694C96.458 52.7627 99.6952 55.9999 103.689 55.9999Z"/>
</mask>
<path d="M52.9379 45.1735L53.7621 44.6072L53.7621 44.6072L52.9379 45.1735ZM69.6149 53.9952L69.6218 52.9952L69.6218 52.9952L69.6149 53.9952ZM52.5358 44.5649L51.837 43.8496L51.2569 44.4163L51.6916 45.1009L52.5358 44.5649ZM55.9188 41.2599L56.6176 41.9752L56.6176 41.9752L55.9188 41.2599ZM60.502 36.7824L61.454 36.4764L60.9593 34.9376L59.8032 36.0671L60.502 36.7824ZM60.773 37.5192L59.8495 37.9029L59.8495 37.9029L60.773 37.5192ZM64.0856 41.6695L64.6665 40.8556L64.6665 40.8556L64.0856 41.6695ZM69.6874 43.4783L69.6805 44.4783L69.6805 44.4783L69.6874 43.4783ZM76.5708 40.7096L77.2696 41.4249L77.2696 41.4249L76.5708 40.7096ZM89.0954 28.4741L88.3966 27.7588L88.3966 27.7588L89.0954 28.4741ZM91.9854 21.6951L90.9854 21.6882L90.9854 21.6882L91.9854 21.6951ZM91.6732 19.2002L92.6404 18.9459L92.6189 18.8644L92.5841 18.7876L91.6732 19.2002ZM88.4254 15.2865L87.8501 16.1045L87.8501 16.1045L88.4254 15.2865ZM75.9477 16.333L76.6514 17.0435L76.6514 17.0435L75.9477 16.333ZM42.2712 49.6888L41.5675 48.9784L41.5675 48.9784L42.2712 49.6888ZM13.5266 21.2179L12.8229 20.5074L12.8229 20.5074L13.5266 21.2179ZM25.9666 8.89637L26.6703 9.60685L26.6703 9.60685L25.9666 8.89637ZM57.0764 11.7064L56.256 12.2782L56.256 12.2783L57.0764 11.7064ZM57.4826 12.3122L58.1863 13.0226L58.7625 12.4519L58.3231 11.7703L57.4826 12.3122ZM54.1225 15.6403L53.4188 14.9299L53.4188 14.9299L54.1225 15.6403ZM49.5702 20.1493L48.6203 20.4619L49.1256 21.9972L50.2739 20.8598L49.5702 20.1493ZM49.2942 19.4145L50.2149 19.0244L50.2149 19.0244L49.2942 19.4145ZM45.9531 15.2871L46.5284 14.4691L46.5284 14.4691L45.9531 15.2871ZM33.4747 16.333L32.771 15.6225L32.771 15.6225L33.4747 16.333ZM21.0348 28.6545L21.7385 29.365L21.7385 29.365L21.0348 28.6545ZM18.4046 37.4664L17.427 37.6767L17.4491 37.7794L17.4921 37.8753L18.4046 37.4664ZM21.6143 41.3773L21.0334 42.1913L21.0334 42.1913L21.6143 41.3773ZM27.2154 43.1856L27.2085 44.1856L27.2085 44.1856L27.2154 43.1856ZM34.0988 40.4168L34.7976 41.1322L34.7976 41.1322L34.0988 40.4168ZM68.0044 7.29392L68.7032 8.00923L68.7032 8.00923L68.0044 7.29392ZM82.417 1.49658L82.4101 2.49656L82.417 1.49658ZM102.603 21.7682L101.603 21.7613L101.603 21.7613L102.603 21.7682ZM96.5521 35.9623L95.8533 35.247L95.8533 35.247L96.5521 35.9623ZM84.0275 48.1978L83.3287 47.4825L83.3287 47.4825L84.0275 48.1978ZM52.1136 45.7397C55.9228 51.2849 62.3282 54.945 69.608 54.9952L69.6218 52.9952C63.0184 52.9497 57.2139 49.6322 53.7621 44.6072L52.1136 45.7397ZM51.6916 45.1009C51.8285 45.3165 51.9692 45.5294 52.1136 45.7397L53.7621 44.6072C53.6313 44.4169 53.5039 44.224 53.38 44.0289L51.6916 45.1009ZM55.22 40.5446L51.837 43.8496L53.2346 45.2802L56.6176 41.9752L55.22 40.5446ZM59.8032 36.0671L55.22 40.5446L56.6176 41.9752L61.2008 37.4977L59.8032 36.0671ZM61.6964 37.1355C61.6069 36.92 61.5259 36.7001 61.454 36.4764L59.55 37.0885C59.6389 37.365 59.7389 37.6367 59.8495 37.9029L61.6964 37.1355ZM64.6665 40.8556C63.3542 39.9189 62.3179 38.631 61.6964 37.1355L59.8495 37.9029C60.6169 39.7497 61.8934 41.3335 63.5046 42.4835L64.6665 40.8556ZM69.6943 42.4784C67.8144 42.4654 66.081 41.8651 64.6665 40.8556L63.5046 42.4835C65.2445 43.7253 67.3767 44.4624 69.6805 44.4783L69.6943 42.4784ZM75.872 39.9943C74.2287 41.5997 72.0067 42.4943 69.6943 42.4784L69.6805 44.4783C72.5171 44.4979 75.2472 43.4006 77.2696 41.4249L75.872 39.9943ZM88.3966 27.7588L75.872 39.9943L77.2696 41.4249L89.7942 29.1894L88.3966 27.7588ZM90.9854 21.6882C90.9697 23.9698 90.0396 26.1537 88.3966 27.7588L89.7942 29.1894C91.817 27.2134 92.966 24.5202 92.9854 21.702L90.9854 21.6882ZM90.7061 19.4544C90.8932 20.1664 90.9908 20.915 90.9854 21.6882L92.9854 21.702C92.9919 20.7509 92.8719 19.8268 92.6404 18.9459L90.7061 19.4544ZM87.8501 16.1045C89.1122 16.9921 90.1238 18.2032 90.7623 19.6127L92.5841 18.7876C91.796 17.0475 90.5503 15.5583 89.0006 14.4685L87.8501 16.1045ZM82.8119 14.5169C84.6916 14.5169 86.4288 15.105 87.8501 16.1045L89.0006 14.4685C87.2523 13.2391 85.1153 12.5169 82.8119 12.5169V14.5169ZM76.6514 17.0435C78.2837 15.4268 80.4995 14.5169 82.8119 14.5169V12.5169C79.9752 12.5169 77.2528 13.6329 75.244 15.6225L76.6514 17.0435ZM42.975 50.3993L76.6514 17.0435L75.244 15.6225L41.5675 48.9784L42.975 50.3993ZM27.8989 56.5854C33.5518 56.5854 38.9749 54.3613 42.975 50.3993L41.5675 48.9784C37.944 52.5674 33.0275 54.5854 27.8989 54.5854V56.5854ZM6.5733 35.4533C6.5733 47.1332 16.1301 56.5854 27.8989 56.5854V54.5854C17.2166 54.5854 8.5733 46.0107 8.5733 35.4533H6.5733ZM12.8229 20.5074C8.82253 24.4696 6.5733 29.8456 6.5733 35.4533H8.5733C8.5733 30.3823 10.6071 25.5171 14.2303 21.9284L12.8229 20.5074ZM25.2629 8.18588L12.8229 20.5074L14.2303 21.9284L26.6703 9.60685L25.2629 8.18588ZM40.3389 1.99977C34.686 1.99977 29.2629 4.22396 25.2629 8.18588L26.6703 9.60685C30.2938 6.01783 35.2104 3.99977 40.3389 3.99977V1.99977ZM57.8967 11.1345C54.0494 5.61567 47.6189 1.99977 40.3389 1.99977V3.99977C46.9424 3.99977 52.7697 7.27723 56.256 12.2782L57.8967 11.1345ZM58.3231 11.7703C58.1847 11.5557 58.0426 11.3437 57.8967 11.1345L56.256 12.2783C56.3881 12.4677 56.5168 12.6597 56.6421 12.854L58.3231 11.7703ZM54.8262 16.3508L58.1863 13.0226L56.7789 11.6017L53.4188 14.9299L54.8262 16.3508ZM50.2739 20.8598L54.8262 16.3508L53.4188 14.9299L48.8665 19.4389L50.2739 20.8598ZM48.3734 19.8045C48.4644 20.0194 48.5469 20.2387 48.6203 20.4619L50.5201 19.8367C50.4293 19.5608 50.3274 19.2898 50.2149 19.0244L48.3734 19.8045ZM45.3778 16.105C46.6965 17.0326 47.7416 18.3133 48.3734 19.8045L50.2149 19.0244C49.4348 17.1829 48.1475 15.608 46.5284 14.4691L45.3778 16.105ZM40.3389 14.5169C42.2189 14.5169 43.9563 15.1052 45.3778 16.105L46.5284 14.4691C44.78 13.2393 42.6427 12.5169 40.3389 12.5169V14.5169ZM34.1785 17.0435C35.8107 15.4268 38.0265 14.5169 40.3389 14.5169V12.5169C37.5022 12.5169 34.7798 13.6329 32.771 15.6225L34.1785 17.0435ZM21.7385 29.365L34.1785 17.0435L32.771 15.6225L20.331 27.944L21.7385 29.365ZM19.1915 35.4533C19.1915 33.1716 20.1065 30.9814 21.7385 29.365L20.331 27.944C18.3219 29.934 17.1915 32.635 17.1915 35.4533H19.1915ZM19.3823 37.2561C19.2574 36.6756 19.1915 36.0726 19.1915 35.4533H17.1915C17.1915 36.2149 17.2726 36.9588 17.427 37.6767L19.3823 37.2561ZM22.1951 40.5633C20.9458 39.6718 19.9465 38.4619 19.3172 37.0575L17.4921 37.8753C18.2689 39.6089 19.4994 41.0967 21.0334 42.1913L22.1951 40.5633ZM27.2223 42.1856C25.3427 42.1727 23.6095 41.5726 22.1951 40.5633L21.0334 42.1913C22.7732 43.4328 24.9051 44.1697 27.2085 44.1856L27.2223 42.1856ZM33.4 39.7015C31.7567 41.3069 29.5347 42.2016 27.2223 42.1856L27.2085 44.1856C30.0452 44.2051 32.7752 43.1079 34.7976 41.1322L33.4 39.7015ZM67.3056 6.5786L33.4 39.7015L34.7976 41.1322L68.7032 8.00923L67.3056 6.5786ZM82.4239 0.496606C76.7712 0.457645 71.3328 2.64431 67.3056 6.5786L68.7032 8.00923C72.3514 4.44526 77.2817 2.46121 82.4101 2.49656L82.4239 0.496606ZM103.603 21.7751C103.684 10.0955 94.1925 0.577718 82.4239 0.496606L82.4101 2.49656C93.0922 2.57018 101.676 11.2042 101.603 21.7613L103.603 21.7751ZM97.2509 36.6776C101.279 32.7431 103.565 27.3827 103.603 21.7751L101.603 21.7613C101.568 26.8323 99.5012 31.6834 95.8533 35.247L97.2509 36.6776ZM84.7263 48.9131L97.2509 36.6776L95.8533 35.247L83.3287 47.4825L84.7263 48.9131ZM69.608 54.9952C75.2607 55.0341 80.6991 52.8474 84.7263 48.9131L83.3287 47.4825C79.6806 51.0464 74.7502 53.0306 69.6218 52.9952L69.608 54.9952ZM8.23052 18.461C12.7761 18.461 16.461 14.776 16.461 10.2304H14.461C14.461 13.6715 11.6715 16.461 8.23052 16.461V18.461ZM0 10.2304C0 14.776 3.68493 18.461 8.23052 18.461V16.461C4.7895 16.461 2 13.6715 2 10.2304H0ZM8.23052 1.99992C3.68493 1.99992 0 5.68485 0 10.2304H2C2 6.78942 4.7895 3.99992 8.23052 3.99992V1.99992ZM16.461 10.2304C16.461 5.68485 12.7761 1.99992 8.23052 1.99992V3.99992C11.6715 3.99992 14.461 6.78942 14.461 10.2304H16.461ZM109.919 48.7694C109.919 52.2104 107.13 54.9999 103.689 54.9999V56.9999C108.234 56.9999 111.919 53.315 111.919 48.7694H109.919ZM103.689 42.5389C107.13 42.5389 109.919 45.3284 109.919 48.7694H111.919C111.919 44.2238 108.234 40.5389 103.689 40.5389V42.5389ZM97.458 48.7694C97.458 45.3284 100.247 42.5389 103.689 42.5389V40.5389C99.1429 40.5389 95.458 44.2238 95.458 48.7694H97.458ZM103.689 54.9999C100.247 54.9999 97.458 52.2104 97.458 48.7694H95.458C95.458 53.315 99.1429 56.9999 103.689 56.9999V54.9999Z" fill="white" mask="url(#path-1-outside-1_105_341)"/>
</svg>
