<svg width="362" height="143" viewBox="0 0 362 143" fill="none" xmlns="http://www.w3.org/2000/svg">
<mask id="path-1-outside-1_1051_199" maskUnits="userSpaceOnUse" x="0" y="49.4961" width="112" height="57" fill="white">
<rect fill="white" y="49.4961" width="112" height="57"/>
<path fill-rule="evenodd" clip-rule="evenodd" d="M69.6149 102.995C62.6733 102.947 56.5684 99.4585 52.9379 94.1735C52.8003 93.9731 52.6662 93.7703 52.5358 93.5649L55.9188 90.2599L60.502 85.7824C60.5824 86.0326 60.6729 86.2783 60.773 86.5192C61.4674 88.1904 62.6238 89.6262 64.0856 90.6695C65.6628 91.7952 67.5956 92.4639 69.6874 92.4783C72.2619 92.4961 74.7379 91.5001 76.5708 89.7096L89.0954 77.4741C90.9283 75.6835 91.9678 73.245 91.9854 70.6951C91.9914 69.833 91.8826 68.9966 91.6732 68.2002C90.9599 66.6253 89.8313 65.2752 88.4254 64.2865C86.8406 63.1721 84.9035 62.5169 82.8119 62.5169C80.2373 62.5169 77.7682 63.5299 75.9477 65.333L42.2712 98.6888C38.4595 102.464 33.2896 104.585 27.8989 104.585C16.6733 104.585 7.5733 95.572 7.5733 84.4533C7.5733 79.114 9.71481 73.9933 13.5266 70.2179L25.9666 57.8964C29.7784 54.1209 34.9482 51.9998 40.3389 51.9998C47.2806 51.9998 53.4095 55.4464 57.0764 60.7064C57.2153 60.9057 57.3508 61.1077 57.4826 61.3122L54.1225 64.6403L49.5702 69.1493C49.4881 68.8997 49.3959 68.6546 49.2942 68.4145C48.5882 66.7481 47.422 65.3203 45.9531 64.2871C44.3681 63.1723 42.4308 62.5169 40.3389 62.5169C37.7643 62.5169 35.2952 63.5299 33.4747 65.333L21.0348 77.6545C19.2142 79.4577 18.1915 81.9033 18.1915 84.4533C18.1915 85.1438 18.265 85.8172 18.4046 86.4664C19.1077 88.0354 20.2226 89.3842 21.6143 90.3773C23.1913 91.5027 25.1239 92.1712 27.2154 92.1856C29.7899 92.2033 32.2659 91.2074 34.0988 89.4168L68.0044 56.2939C71.8421 52.5448 77.0264 50.4594 82.417 50.4966C93.6424 50.5739 102.68 59.6499 102.603 70.7682C102.567 76.1075 100.39 81.2132 96.5521 84.9623L84.0275 97.1978C80.1898 100.947 75.0055 103.032 69.6149 102.995ZM15.461 59.2304C15.461 63.2238 12.2238 66.461 8.23052 66.461C4.23721 66.461 1 63.2238 1 59.2304C1 55.2371 4.23721 51.9999 8.23052 51.9999C12.2238 51.9999 15.461 55.2371 15.461 59.2304ZM103.689 105C107.682 105 110.919 101.763 110.919 97.7694C110.919 93.7761 107.682 90.5389 103.689 90.5389C99.6952 90.5389 96.458 93.7761 96.458 97.7694C96.458 101.763 99.6952 105 103.689 105Z"/>
</mask>
<path d="M52.9379 94.1735L53.7621 93.6072L53.7621 93.6072L52.9379 94.1735ZM69.6149 102.995L69.6218 101.995L69.6218 101.995L69.6149 102.995ZM52.5358 93.5649L51.837 92.8496L51.2569 93.4163L51.6916 94.1009L52.5358 93.5649ZM55.9188 90.2599L56.6176 90.9752L56.6176 90.9752L55.9188 90.2599ZM60.502 85.7824L61.454 85.4764L60.9593 83.9376L59.8032 85.0671L60.502 85.7824ZM60.773 86.5192L59.8495 86.9029L59.8495 86.9029L60.773 86.5192ZM64.0856 90.6695L64.6665 89.8556L64.6665 89.8556L64.0856 90.6695ZM69.6874 92.4783L69.6805 93.4783L69.6805 93.4783L69.6874 92.4783ZM76.5708 89.7096L77.2696 90.4249L77.2696 90.4249L76.5708 89.7096ZM89.0954 77.4741L88.3966 76.7588L88.3966 76.7588L89.0954 77.4741ZM91.9854 70.6951L90.9854 70.6882L90.9854 70.6882L91.9854 70.6951ZM91.6732 68.2002L92.6404 67.9459L92.6189 67.8644L92.5841 67.7876L91.6732 68.2002ZM88.4254 64.2865L87.8501 65.1045L87.8501 65.1045L88.4254 64.2865ZM75.9477 65.333L76.6514 66.0435L76.6514 66.0435L75.9477 65.333ZM42.2712 98.6888L41.5675 97.9784L41.5675 97.9784L42.2712 98.6888ZM13.5266 70.2179L12.8229 69.5074L12.8229 69.5074L13.5266 70.2179ZM25.9666 57.8964L26.6703 58.6068L26.6703 58.6068L25.9666 57.8964ZM57.0764 60.7064L56.256 61.2782L56.256 61.2783L57.0764 60.7064ZM57.4826 61.3122L58.1863 62.0226L58.7625 61.4519L58.3231 60.7703L57.4826 61.3122ZM54.1225 64.6403L53.4188 63.9299L53.4188 63.9299L54.1225 64.6403ZM49.5702 69.1493L48.6203 69.4619L49.1256 70.9972L50.2739 69.8598L49.5702 69.1493ZM49.2942 68.4145L50.2149 68.0244L50.2149 68.0244L49.2942 68.4145ZM45.9531 64.2871L46.5284 63.4691L46.5284 63.4691L45.9531 64.2871ZM33.4747 65.333L32.771 64.6225L32.771 64.6225L33.4747 65.333ZM21.0348 77.6545L21.7385 78.365L21.7385 78.365L21.0348 77.6545ZM18.4046 86.4664L17.427 86.6767L17.4491 86.7794L17.4921 86.8753L18.4046 86.4664ZM21.6143 90.3773L21.0334 91.1913L21.0334 91.1913L21.6143 90.3773ZM27.2154 92.1856L27.2085 93.1856L27.2085 93.1856L27.2154 92.1856ZM34.0988 89.4168L34.7976 90.1322L34.7976 90.1322L34.0988 89.4168ZM68.0044 56.2939L68.7032 57.0092L68.7032 57.0092L68.0044 56.2939ZM82.417 50.4966L82.4101 51.4966L82.417 50.4966ZM102.603 70.7682L101.603 70.7613L101.603 70.7613L102.603 70.7682ZM96.5521 84.9623L95.8533 84.247L95.8533 84.247L96.5521 84.9623ZM84.0275 97.1978L83.3287 96.4825L83.3287 96.4825L84.0275 97.1978ZM52.1136 94.7397C55.9228 100.285 62.3282 103.945 69.608 103.995L69.6218 101.995C63.0184 101.95 57.2139 98.6322 53.7621 93.6072L52.1136 94.7397ZM51.6916 94.1009C51.8285 94.3165 51.9692 94.5294 52.1136 94.7397L53.7621 93.6072C53.6313 93.4169 53.5039 93.224 53.38 93.0289L51.6916 94.1009ZM55.22 89.5446L51.837 92.8496L53.2346 94.2802L56.6176 90.9752L55.22 89.5446ZM59.8032 85.0671L55.22 89.5446L56.6176 90.9752L61.2008 86.4977L59.8032 85.0671ZM61.6964 86.1355C61.6069 85.92 61.5259 85.7001 61.454 85.4764L59.55 86.0885C59.6389 86.365 59.7389 86.6367 59.8495 86.9029L61.6964 86.1355ZM64.6665 89.8556C63.3542 88.9189 62.3179 87.631 61.6964 86.1355L59.8495 86.9029C60.6169 88.7497 61.8934 90.3335 63.5046 91.4835L64.6665 89.8556ZM69.6943 91.4784C67.8144 91.4654 66.081 90.8651 64.6665 89.8556L63.5046 91.4835C65.2445 92.7253 67.3767 93.4624 69.6805 93.4783L69.6943 91.4784ZM75.872 88.9943C74.2287 90.5997 72.0067 91.4943 69.6943 91.4784L69.6805 93.4783C72.5171 93.4979 75.2472 92.4006 77.2696 90.4249L75.872 88.9943ZM88.3966 76.7588L75.872 88.9943L77.2696 90.4249L89.7942 78.1894L88.3966 76.7588ZM90.9854 70.6882C90.9697 72.9698 90.0396 75.1537 88.3966 76.7588L89.7942 78.1894C91.817 76.2134 92.966 73.5202 92.9854 70.702L90.9854 70.6882ZM90.7061 68.4544C90.8932 69.1664 90.9908 69.915 90.9854 70.6882L92.9854 70.702C92.9919 69.7509 92.8719 68.8268 92.6404 67.9459L90.7061 68.4544ZM87.8501 65.1045C89.1122 65.9921 90.1238 67.2032 90.7623 68.6127L92.5841 67.7876C91.796 66.0475 90.5503 64.5583 89.0006 63.4685L87.8501 65.1045ZM82.8119 63.5169C84.6916 63.5169 86.4288 64.105 87.8501 65.1045L89.0006 63.4685C87.2523 62.2391 85.1153 61.5169 82.8119 61.5169V63.5169ZM76.6514 66.0435C78.2837 64.4268 80.4995 63.5169 82.8119 63.5169V61.5169C79.9752 61.5169 77.2528 62.6329 75.244 64.6225L76.6514 66.0435ZM42.975 99.3993L76.6514 66.0435L75.244 64.6225L41.5675 97.9784L42.975 99.3993ZM27.8989 105.585C33.5518 105.585 38.9749 103.361 42.975 99.3993L41.5675 97.9784C37.944 101.567 33.0275 103.585 27.8989 103.585V105.585ZM6.5733 84.4533C6.5733 96.1332 16.1301 105.585 27.8989 105.585V103.585C17.2166 103.585 8.5733 95.0107 8.5733 84.4533H6.5733ZM12.8229 69.5074C8.82253 73.4696 6.5733 78.8456 6.5733 84.4533H8.5733C8.5733 79.3823 10.6071 74.5171 14.2303 70.9284L12.8229 69.5074ZM25.2629 57.1859L12.8229 69.5074L14.2303 70.9284L26.6703 58.6068L25.2629 57.1859ZM40.3389 50.9998C34.686 50.9998 29.2629 53.224 25.2629 57.1859L26.6703 58.6068C30.2938 55.0178 35.2104 52.9998 40.3389 52.9998V50.9998ZM57.8967 60.1345C54.0494 54.6157 47.6189 50.9998 40.3389 50.9998V52.9998C46.9424 52.9998 52.7697 56.2772 56.256 61.2782L57.8967 60.1345ZM58.3231 60.7703C58.1847 60.5557 58.0426 60.3437 57.8967 60.1345L56.256 61.2783C56.3881 61.4677 56.5168 61.6597 56.6421 61.854L58.3231 60.7703ZM54.8262 65.3508L58.1863 62.0226L56.7789 60.6017L53.4188 63.9299L54.8262 65.3508ZM50.2739 69.8598L54.8262 65.3508L53.4188 63.9299L48.8665 68.4389L50.2739 69.8598ZM48.3734 68.8045C48.4644 69.0194 48.5469 69.2387 48.6203 69.4619L50.5201 68.8367C50.4293 68.5608 50.3274 68.2898 50.2149 68.0244L48.3734 68.8045ZM45.3778 65.105C46.6965 66.0326 47.7416 67.3133 48.3734 68.8045L50.2149 68.0244C49.4348 66.1829 48.1475 64.608 46.5284 63.4691L45.3778 65.105ZM40.3389 63.5169C42.2189 63.5169 43.9563 64.1052 45.3778 65.105L46.5284 63.4691C44.78 62.2393 42.6427 61.5169 40.3389 61.5169V63.5169ZM34.1785 66.0435C35.8107 64.4268 38.0265 63.5169 40.3389 63.5169V61.5169C37.5022 61.5169 34.7798 62.6329 32.771 64.6225L34.1785 66.0435ZM21.7385 78.365L34.1785 66.0435L32.771 64.6225L20.331 76.944L21.7385 78.365ZM19.1915 84.4533C19.1915 82.1716 20.1065 79.9814 21.7385 78.365L20.331 76.944C18.3219 78.934 17.1915 81.635 17.1915 84.4533H19.1915ZM19.3823 86.2561C19.2574 85.6756 19.1915 85.0726 19.1915 84.4533H17.1915C17.1915 85.2149 17.2726 85.9588 17.427 86.6767L19.3823 86.2561ZM22.1951 89.5633C20.9458 88.6718 19.9465 87.4619 19.3172 86.0575L17.4921 86.8753C18.2689 88.6089 19.4994 90.0967 21.0334 91.1913L22.1951 89.5633ZM27.2223 91.1856C25.3427 91.1727 23.6095 90.5726 22.1951 89.5633L21.0334 91.1913C22.7732 92.4328 24.9051 93.1697 27.2085 93.1856L27.2223 91.1856ZM33.4 88.7015C31.7567 90.3069 29.5347 91.2016 27.2223 91.1856L27.2085 93.1856C30.0452 93.2051 32.7752 92.1079 34.7976 90.1322L33.4 88.7015ZM67.3056 55.5786L33.4 88.7015L34.7976 90.1322L68.7032 57.0092L67.3056 55.5786ZM82.4239 49.4966C76.7712 49.4576 71.3328 51.6443 67.3056 55.5786L68.7032 57.0092C72.3514 53.4453 77.2817 51.4612 82.4101 51.4966L82.4239 49.4966ZM103.603 70.7751C103.684 59.0955 94.1925 49.5777 82.4239 49.4966L82.4101 51.4966C93.0922 51.5702 101.676 60.2042 101.603 70.7613L103.603 70.7751ZM97.2509 85.6776C101.279 81.7431 103.565 76.3827 103.603 70.7751L101.603 70.7613C101.568 75.8323 99.5012 80.6834 95.8533 84.247L97.2509 85.6776ZM84.7263 97.9131L97.2509 85.6776L95.8533 84.247L83.3287 96.4825L84.7263 97.9131ZM69.608 103.995C75.2607 104.034 80.6991 101.847 84.7263 97.9131L83.3287 96.4825C79.6806 100.046 74.7502 102.031 69.6218 101.995L69.608 103.995ZM8.23052 67.461C12.7761 67.461 16.461 63.776 16.461 59.2304H14.461C14.461 62.6715 11.6715 65.461 8.23052 65.461V67.461ZM0 59.2304C0 63.776 3.68493 67.461 8.23052 67.461V65.461C4.7895 65.461 2 62.6715 2 59.2304H0ZM8.23052 50.9999C3.68493 50.9999 0 54.6849 0 59.2304H2C2 55.7894 4.7895 52.9999 8.23052 52.9999V50.9999ZM16.461 59.2304C16.461 54.6849 12.7761 50.9999 8.23052 50.9999V52.9999C11.6715 52.9999 14.461 55.7894 14.461 59.2304H16.461ZM109.919 97.7694C109.919 101.21 107.13 104 103.689 104V106C108.234 106 111.919 102.315 111.919 97.7694H109.919ZM103.689 91.5389C107.13 91.5389 109.919 94.3284 109.919 97.7694H111.919C111.919 93.2238 108.234 89.5389 103.689 89.5389V91.5389ZM97.458 97.7694C97.458 94.3284 100.247 91.5389 103.689 91.5389V89.5389C99.1429 89.5389 95.458 93.2238 95.458 97.7694H97.458ZM103.689 104C100.247 104 97.458 101.21 97.458 97.7694H95.458C95.458 102.315 99.1429 106 103.689 106V104Z" fill="white" mask="url(#path-1-outside-1_1051_199)"/>
<path d="M128.048 105V43.176H138.512V71.592L164.816 43.176H176.912L154.16 68.136L177.872 105H166.736L147.632 74.76L138.512 84.552V105H128.048ZM198.881 105.96C196.001 105.96 193.313 105.448 190.817 104.424C188.385 103.4 186.433 101.864 184.961 99.816C183.489 97.704 182.753 95.112 182.753 92.04C182.753 87.688 184.225 84.2 187.169 81.576C190.177 78.888 194.785 77.544 200.993 77.544H215.585V75.528C215.585 73.352 215.233 71.624 214.529 70.344C213.889 69.064 212.673 68.136 210.881 67.56C209.153 66.984 206.593 66.696 203.201 66.696C197.825 66.696 192.801 67.496 188.129 69.096V61.32C190.177 60.488 192.673 59.816 195.617 59.304C198.561 58.792 201.729 58.536 205.121 58.536C211.777 58.536 216.833 59.88 220.289 62.568C223.809 65.256 225.569 69.64 225.569 75.72V105H216.641L215.969 100.392C214.113 102.184 211.809 103.56 209.057 104.52C206.369 105.48 202.977 105.96 198.881 105.96ZM201.665 98.472C204.801 98.472 207.521 97.96 209.825 96.936C212.193 95.848 214.113 94.408 215.585 92.616V84.648H201.185C198.113 84.648 195.873 85.256 194.465 86.472C193.121 87.624 192.449 89.416 192.449 91.848C192.449 94.216 193.249 95.912 194.849 96.936C196.449 97.96 198.721 98.472 201.665 98.472ZM235.253 105V99.528L260.117 68.04H236.405V59.496H272.981V65.928L248.597 96.936H273.653V105H235.253ZM287.794 49.992V41.352H299.218V49.992H287.794ZM288.658 105V67.464H281.746L282.706 59.496H299.122V105H288.658ZM314.113 105V67.656H307.489V59.496H314.113V53.928C314.113 49.384 315.361 45.736 317.857 42.984C320.417 40.168 324.193 38.76 329.185 38.76C331.041 38.76 332.737 38.92 334.273 39.24C335.809 39.496 337.217 39.88 338.497 40.392V47.88C336.513 47.176 334.497 46.824 332.449 46.824C329.441 46.824 327.361 47.368 326.209 48.456C325.057 49.544 324.481 51.4 324.481 54.024V59.496H336.385L335.905 67.656H324.481V105H314.113ZM344.513 49.992V41.352H355.937V49.992H344.513ZM345.377 105V67.464H338.465L339.425 59.496H355.841V105H345.377Z" fill="white"/>
</svg>
