<svg width="32" height="32" viewBox="0 0 32 32" fill="none" xmlns="http://www.w3.org/2000/svg">
<rect width="32" height="32" rx="16" fill="#BFFB4F"/>
<path d="M20.8513 8.11468C20.5851 7.81363 20.1937 7.64142 19.7817 7.6874C19.248 7.74695 18.3905 7.97048 18.0238 8.79135C17.8409 9.20067 17.9918 9.63784 18.1476 9.96097C18.3115 10.3008 18.4571 10.685 18.579 11.0991C17.6728 10.0422 16.3706 8.76912 14.8675 7.94971C14.4683 7.7321 13.964 7.69563 13.5585 7.96861C13.1656 8.23317 12.6751 8.69915 12.513 9.43824C12.3866 10.0142 12.7655 10.5076 13.1474 10.8181C13.8994 11.4295 14.5606 12.2014 15.1286 13.0572C13.6733 12.6124 12.1649 12.6249 10.7613 13.3067C9.84383 13.7524 9.49595 14.8759 10.0194 15.7557C10.1035 15.897 10.1892 16.0286 10.2733 16.1492C10.7265 16.7996 11.5577 16.853 12.234 16.678C12.918 16.5009 13.5283 16.5347 14.0299 16.7375C14.5302 16.9398 14.9358 17.3154 15.2052 17.8472C15.4731 18.3762 15.2729 19.0326 14.7665 19.3967C14.5643 19.5421 14.3435 19.6742 14.1215 19.7611C13.0548 20.075 11.9241 19.336 11.507 18.0839C11.4022 17.7692 11.2248 17.4559 10.9806 17.2326C10.733 17.0061 10.4086 16.867 10.0323 16.9334C9.85792 16.9642 9.69353 17.0035 9.54093 17.0475C8.67658 17.2965 8.21913 18.1626 8.33873 19.0218C8.64741 21.2391 9.77089 22.8107 11.3669 23.8099C12.1596 24.3062 13.077 24.5407 13.9902 24.6161C16.1943 24.798 18.2681 24.5239 19.5362 24.2867C20.4112 24.1231 21.241 23.7101 21.7964 22.9825C22.5865 21.9471 23.6156 20.0853 23.676 17.3674C23.7657 13.3288 22.3138 9.76811 20.8513 8.11468Z" fill="black"/>
</svg>
