<svg width="300" height="200" viewBox="0 0 300 200" fill="none" xmlns="http://www.w3.org/2000/svg">
<path d="M74.0962 56.844H11.6162V91.78H74.0962V56.844Z" fill="#FAFAFA"/>
<path d="M74.096 91.78C74.096 91.78 74.096 91.564 74.096 91.152C74.096 90.74 74.096 90.124 74.096 89.328C74.096 87.728 74.096 85.368 74.076 82.34C74.076 76.292 74.052 67.568 74.036 56.844L74.116 56.924L11.64 56.948L11.744 56.844C11.744 69.2 11.744 81.016 11.744 91.78L11.648 91.684L56.58 91.732L69.488 91.756H72.932H73.82H74.128H73.832H72.956H69.532L56.644 91.784L11.6 91.88H11.5V91.78C11.5 81.016 11.5 69.2 11.5 56.844V56.74H11.612L74.088 56.764H74.168V56.844C74.148 67.592 74.136 76.332 74.124 82.392C74.124 85.408 74.124 87.76 74.104 89.356C74.104 90.156 74.104 90.756 74.104 91.168C74.104 91.58 74.096 91.78 74.096 91.78Z" fill="#E0E0E0"/>
<path d="M28.08 65.172H19.248V74.004H28.08V65.172Z" fill="#E0E0E0"/>
<path d="M40.2159 66.4C40.2159 66.456 38.1519 66.504 35.6119 66.504C33.0719 66.504 31.0039 66.456 31.0039 66.4C31.0039 66.344 33.0679 66.296 35.6119 66.296C38.1559 66.296 40.2159 66.356 40.2159 66.4Z" fill="#E0E0E0"/>
<path d="M69.6279 69.6C69.6279 69.656 60.9839 69.704 50.3199 69.704C39.6559 69.704 31.0039 69.656 31.0039 69.6C31.0039 69.544 39.6519 69.496 50.3199 69.496C60.9879 69.496 69.6279 69.532 69.6279 69.6Z" fill="#E0E0E0"/>
<path d="M56.6359 73.152C56.6359 73.208 50.9519 73.256 43.9439 73.256C36.9359 73.256 31.2559 73.208 31.2559 73.152C31.2559 73.096 36.9359 73.048 43.9439 73.048C50.9519 73.048 56.6359 73.092 56.6359 73.152Z" fill="#E0E0E0"/>
<path d="M64.8438 87.152H22.1638C21.0781 87.1509 20.0373 86.7189 19.2701 85.9509C18.5028 85.1829 18.0718 84.1416 18.0718 83.056C18.0718 81.9707 18.5029 80.9299 19.2703 80.1625C20.0377 79.3951 21.0785 78.964 22.1638 78.964H64.8438C65.3815 78.9635 65.914 79.0689 66.4109 79.2743C66.9079 79.4797 67.3594 79.7811 67.7398 80.1611C68.1202 80.5411 68.422 80.9924 68.6279 81.4891C68.8338 81.9859 68.9398 82.5183 68.9398 83.056C68.9398 83.5939 68.8338 84.1265 68.628 84.6235C68.4221 85.1204 68.1204 85.572 67.7401 85.9523C67.3597 86.3327 66.9082 86.6344 66.4112 86.8402C65.9143 87.0461 65.3817 87.152 64.8438 87.152Z" fill="#E0E0E0"/>
<path d="M35.66 83.632H34.612L34.412 84.116H33.876L34.884 81.86H35.4L36.4 84.116H35.86L35.66 83.632ZM35.496 83.232L35.136 82.368L34.8 83.236L35.496 83.232Z" fill="white"/>
<path d="M38.6 82.676C38.6 83.18 38.2 83.476 37.62 83.476H37.164V84.1H36.644V81.844H37.62C38.22 81.86 38.6 82.172 38.6 82.676ZM38.072 82.676C38.072 82.428 37.908 82.276 37.588 82.276H37.164V83.076H37.6C37.908 83.068 38.072 82.924 38.072 82.676Z" fill="white"/>
<path d="M40.9238 82.676C40.9238 83.18 40.5478 83.476 39.9478 83.476H39.4918V84.1H38.9678V81.844H39.9478C40.5478 81.86 40.9238 82.172 40.9238 82.676ZM40.3958 82.676C40.3958 82.428 40.2358 82.276 39.9158 82.276H39.4918V83.076H39.9158C40.2358 83.068 40.3998 82.924 40.3998 82.676H40.3958Z" fill="white"/>
<path d="M41.2959 81.86H41.8199V83.688H42.9519V84.116H41.2959V81.86Z" fill="white"/>
<path d="M44.0962 83.316V84.116H43.5722V83.316L42.7002 81.868H43.2522L43.8562 82.868L44.4602 81.868H44.9722L44.0962 83.316Z" fill="white"/>
<path d="M48.172 81.86V84.116H47.744L46.62 82.744V84.116H46.104V81.86H46.536L47.656 83.228V81.86H48.172Z" fill="white"/>
<path d="M48.5639 82.988C48.5486 82.7399 48.6083 82.493 48.7351 82.2792C48.862 82.0654 49.0501 81.8947 49.2752 81.7892C49.5003 81.6837 49.7518 81.6483 49.9973 81.6875C50.2427 81.7268 50.4707 81.8389 50.6516 82.0093C50.8326 82.1797 50.9582 82.4006 51.012 82.6432C51.0659 82.8859 51.0456 83.1391 50.9538 83.3701C50.862 83.601 50.7029 83.7991 50.4971 83.9385C50.2913 84.078 50.0484 84.1523 49.7999 84.152C49.6412 84.1613 49.4823 84.138 49.3329 84.0837C49.1835 84.0294 49.0468 83.9452 48.9311 83.8363C48.8154 83.7273 48.7231 83.5959 48.66 83.45C48.5968 83.3041 48.5641 83.1469 48.5639 82.988ZM50.5039 82.988C50.5007 82.8495 50.4568 82.715 50.3775 82.6013C50.2983 82.4877 50.1872 82.3999 50.0584 82.3491C49.9295 82.2983 49.7885 82.2866 49.653 82.3155C49.5175 82.3445 49.3935 82.4128 49.2967 82.5118C49.1998 82.6109 49.1343 82.7363 49.1084 82.8724C49.0825 83.0085 49.0974 83.1493 49.1511 83.277C49.2048 83.4047 49.295 83.5137 49.4104 83.5904C49.5258 83.667 49.6613 83.708 49.7999 83.708C49.8945 83.7109 49.9886 83.6941 50.0764 83.6588C50.1642 83.6234 50.2437 83.5702 50.3099 83.5025C50.3761 83.4348 50.4275 83.3542 50.4608 83.2656C50.4942 83.177 50.5089 83.0825 50.5039 82.988Z" fill="white"/>
<path d="M54.7638 81.86L54.0238 84.116H53.4638L52.9678 82.588L52.4558 84.116H51.8998L51.1558 81.86H51.6998L52.2078 83.46L52.7398 81.86H53.2238L53.7398 83.46L54.2638 81.86H54.7638Z" fill="white"/>
<path d="M75.4161 131.24H21.4121V161.436H75.4161V131.24Z" fill="#FAFAFA"/>
<path d="M75.416 161.44C75.416 161.44 75.416 161.252 75.416 160.892C75.416 160.532 75.416 160.004 75.416 159.316C75.416 157.928 75.416 155.892 75.392 153.276C75.392 148.048 75.368 140.508 75.352 131.24L75.432 131.32L21.432 131.344L21.536 131.24C21.536 141.92 21.536 152.132 21.536 161.44L21.44 161.34L60.272 161.388L71.432 161.416H74.408H75.18H75.444H74.4H71.444L60.304 161.444L21.408 161.492H21.312V161.396C21.312 152.088 21.312 141.876 21.312 131.196V131.092H21.42L75.42 131.116H75.5V131.196C75.48 140.488 75.468 148.044 75.456 153.28C75.456 155.888 75.456 157.92 75.456 159.3C75.456 159.984 75.456 160.5 75.456 160.868C75.456 161.236 75.416 161.44 75.416 161.44Z" fill="#E0E0E0"/>
<path d="M35.6482 138.44H28.0122V146.076H35.6482V138.44Z" fill="#E0E0E0"/>
<path d="M46.1319 139.512C44.8012 139.616 43.4661 139.65 42.1319 139.616C40.8043 139.65 39.4759 139.615 38.1519 139.512C39.4759 139.409 40.8043 139.374 42.1319 139.408C43.4661 139.374 44.8012 139.408 46.1319 139.512Z" fill="#E0E0E0"/>
<path d="M71.5559 142.256C71.5559 142.312 64.0839 142.36 54.8639 142.36C45.6439 142.36 38.1719 142.312 38.1719 142.256C38.1719 142.2 45.6439 142.152 54.8639 142.152C64.0839 142.152 71.5559 142.2 71.5559 142.256Z" fill="#E0E0E0"/>
<path d="M60.3239 145.336C60.3239 145.392 55.4119 145.44 49.3559 145.44C43.2999 145.44 38.3999 145.392 38.3999 145.336C38.3999 145.28 43.3119 145.232 49.3679 145.232C55.4239 145.232 60.3239 145.276 60.3239 145.336Z" fill="#E0E0E0"/>
<path d="M67.4202 157.436H30.5322C29.5933 157.436 28.6929 157.063 28.029 156.399C27.3651 155.735 26.9922 154.835 26.9922 153.896C26.9922 153.431 27.0838 152.971 27.2617 152.542C27.4397 152.113 27.7005 151.723 28.0293 151.394C28.358 151.066 28.7483 150.805 29.1778 150.628C29.6073 150.451 30.0675 150.359 30.5322 150.36H67.4202C67.8849 150.359 68.3451 150.451 68.7746 150.628C69.204 150.805 69.5943 151.066 69.9231 151.394C70.2519 151.723 70.5127 152.113 70.6906 152.542C70.8686 152.971 70.9602 153.431 70.9602 153.896C70.9602 154.835 70.5872 155.735 69.9233 156.399C69.2595 157.063 68.3591 157.436 67.4202 157.436Z" fill="#E0E0E0"/>
<path d="M42.1918 154.4H41.2878L41.1158 154.8H40.6558L41.5238 152.852H41.9678L42.8398 154.8H42.3638L42.1918 154.4ZM42.0518 154.056L41.7438 153.312L41.4318 154.056H42.0518Z" fill="white"/>
<path d="M44.7321 153.572C44.7321 154.004 44.4081 154.276 43.8881 154.276H43.4881V154.8H43.0361V152.852H43.8801C44.4001 152.864 44.7321 153.132 44.7321 153.572ZM44.2761 153.572C44.2761 153.356 44.1361 153.232 43.8761 153.232H43.5081V153.908H43.8761C44.1361 153.908 44.2761 153.784 44.2761 153.572Z" fill="white"/>
<path d="M46.7439 153.572C46.7439 154.004 46.4199 154.276 45.8999 154.276H45.4999V154.8H45.0479V152.852H45.8919C46.4199 152.864 46.7439 153.132 46.7439 153.572ZM46.2879 153.572C46.2879 153.356 46.1479 153.232 45.8879 153.232H45.5238V153.908H45.8879C46.1479 153.908 46.2879 153.784 46.2879 153.572Z" fill="white"/>
<path d="M47.0679 152.864H47.5159V154.444H48.4959V154.8H47.0679V152.864Z" fill="white"/>
<path d="M49.4838 154.12V154.8H49.0318V154.104L48.2798 152.852H48.7558L49.2798 153.716L49.7998 152.852H50.2398L49.4838 154.12Z" fill="white"/>
<path d="M53.0082 152.864V154.8H52.6362L51.6682 153.6V154.8H51.2202V152.852H51.6002L52.5722 154.052V152.852L53.0082 152.864Z" fill="white"/>
<path d="M53.3479 153.836C53.3359 153.623 53.3882 153.411 53.498 153.227C53.6078 153.044 53.7701 152.898 53.9639 152.808C54.1577 152.717 54.374 152.688 54.585 152.722C54.796 152.756 54.9918 152.853 55.1472 152.999C55.3027 153.146 55.4105 153.336 55.4568 153.545C55.5031 153.753 55.4858 153.971 55.407 154.17C55.3282 154.368 55.1917 154.539 55.015 154.659C54.8383 154.779 54.6296 154.844 54.4159 154.844C54.2785 154.852 54.141 154.832 54.0117 154.785C53.8824 154.738 53.7641 154.665 53.664 154.571C53.564 154.476 53.4843 154.363 53.4299 154.236C53.3756 154.11 53.3476 153.974 53.3479 153.836ZM55.0239 153.836C55.0207 153.716 54.9824 153.601 54.9137 153.503C54.845 153.405 54.749 153.329 54.6377 153.286C54.5263 153.242 54.4046 153.232 54.2878 153.258C54.1709 153.283 54.0641 153.342 53.9806 153.428C53.8972 153.513 53.8408 153.622 53.8187 153.739C53.7965 153.857 53.8094 153.978 53.8559 154.088C53.9023 154.198 53.9802 154.292 54.0798 154.359C54.1794 154.425 54.2963 154.46 54.4159 154.46C54.4977 154.462 54.5792 154.448 54.6551 154.417C54.7309 154.386 54.7996 154.34 54.8568 154.281C54.9139 154.223 54.9583 154.153 54.987 154.076C55.0158 154 55.0283 153.918 55.0239 153.836Z" fill="white"/>
<path d="M58.704 152.864L58.068 154.8H57.6L57.168 153.48L56.728 154.8H56.244L55.604 152.852H56.072L56.512 154.22L56.972 152.852H57.372L57.82 154.232L58.272 152.852L58.704 152.864Z" fill="white"/>
<path d="M263.56 144.864H209.556V175.06H263.56V144.864Z" fill="#FAFAFA"/>
<path d="M263.56 175.064C263.56 175.064 263.56 174.876 263.56 174.516C263.56 174.156 263.56 173.628 263.56 172.94C263.56 171.552 263.56 169.516 263.54 166.9C263.54 161.672 263.516 154.132 263.496 144.864L263.576 144.944L209.576 144.968L209.68 144.864C209.68 155.544 209.68 165.756 209.68 175.064L209.584 174.964L248.416 175.012L259.576 175.04H262.552H263.324H263.588H262.576H259.62L248.48 175.068L209.584 175.116H209.488V175.02C209.488 165.712 209.488 155.5 209.488 144.82V144.716H209.596L263.596 144.74H263.676V144.82C263.656 154.112 263.644 161.668 263.632 166.904C263.632 169.512 263.632 171.544 263.632 172.924C263.632 173.608 263.632 174.124 263.632 174.492C263.632 174.86 263.56 175.064 263.56 175.064Z" fill="#E0E0E0"/>
<path d="M223.792 152.064H216.156V159.7H223.792V152.064Z" fill="#E0E0E0"/>
<path d="M234.276 153.136C231.624 153.275 228.967 153.275 226.316 153.136C228.967 152.997 231.624 152.997 234.276 153.136Z" fill="#E0E0E0"/>
<path d="M259.7 155.88C259.7 155.936 252.228 155.984 243.008 155.984C233.788 155.984 226.316 155.936 226.316 155.88C226.316 155.824 233.788 155.776 243.008 155.776C252.228 155.776 259.7 155.824 259.7 155.88Z" fill="#E0E0E0"/>
<path d="M248.468 158.96C248.468 159.016 243.556 159.064 237.5 159.064C231.444 159.064 226.532 159.016 226.532 158.96C226.532 158.904 231.444 158.856 237.5 158.856C243.556 158.856 248.468 158.9 248.468 158.96Z" fill="#E0E0E0"/>
<path d="M255.564 171.06H218.676C217.737 171.06 216.837 170.687 216.173 170.023C215.509 169.359 215.136 168.459 215.136 167.52C215.136 167.055 215.228 166.595 215.406 166.166C215.584 165.737 215.845 165.347 216.173 165.018C216.502 164.69 216.892 164.429 217.322 164.252C217.751 164.075 218.212 163.983 218.676 163.984H255.564C256.029 163.983 256.489 164.075 256.919 164.252C257.348 164.429 257.738 164.69 258.067 165.018C258.396 165.347 258.657 165.737 258.835 166.166C259.013 166.595 259.104 167.055 259.104 167.52C259.104 168.459 258.731 169.359 258.067 170.023C257.404 170.687 256.503 171.06 255.564 171.06Z" fill="#E0E0E0"/>
<path d="M230.34 168.02H229.432L229.26 168.42H228.8L229.668 166.472H230.112L230.984 168.42H230.512L230.34 168.02ZM230.196 167.676L229.888 166.928L229.58 167.676H230.196Z" fill="white"/>
<path d="M232.88 167.2C232.88 167.632 232.552 167.904 232.032 167.904H231.632V168.44H231.2V166.492H232.044C232.552 166.488 232.88 166.756 232.88 167.2ZM232.424 167.2C232.424 166.984 232.284 166.86 232.024 166.86H231.656V167.536H232C232.284 167.532 232.424 167.404 232.424 167.2Z" fill="white"/>
<path d="M234.892 167.2C234.892 167.632 234.564 167.904 234.044 167.904H233.644V168.44H233.2V166.492H234.044C234.564 166.488 234.892 166.756 234.892 167.2ZM234.432 167.2C234.432 166.984 234.296 166.86 234.032 166.86H233.664V167.536H234.032C234.296 167.532 234.432 167.404 234.432 167.2Z" fill="white"/>
<path d="M235.2 166.488H235.652V168.068H236.628V168.436H235.2V166.488Z" fill="white"/>
<path d="M237.628 167.744V168.436H237.2V167.74L236.444 166.488H236.924L237.444 167.352L237.964 166.488H238.4L237.628 167.744Z" fill="white"/>
<path d="M241.152 166.488V168.436H240.8L239.828 167.236V168.436H239.38V166.488H239.756L240.724 167.688V166.488H241.152Z" fill="white"/>
<path d="M241.496 167.46C241.484 167.246 241.536 167.034 241.646 166.851C241.756 166.667 241.919 166.521 242.113 166.431C242.307 166.341 242.523 166.311 242.734 166.346C242.946 166.381 243.141 166.478 243.297 166.625C243.452 166.772 243.559 166.962 243.605 167.171C243.651 167.38 243.633 167.598 243.554 167.796C243.474 167.995 243.337 168.165 243.16 168.285C242.983 168.405 242.774 168.468 242.56 168.468C242.423 168.476 242.285 168.456 242.156 168.409C242.027 168.362 241.909 168.289 241.809 168.195C241.71 168.1 241.63 167.986 241.576 167.86C241.522 167.733 241.495 167.597 241.496 167.46ZM243.172 167.46C243.169 167.339 243.132 167.222 243.063 167.123C242.994 167.024 242.898 166.948 242.786 166.903C242.674 166.859 242.551 166.848 242.433 166.873C242.315 166.898 242.207 166.957 242.123 167.043C242.039 167.13 241.982 167.239 241.959 167.357C241.936 167.475 241.949 167.598 241.996 167.709C242.042 167.82 242.121 167.915 242.221 167.982C242.321 168.048 242.439 168.084 242.56 168.084C242.642 168.086 242.723 168.072 242.8 168.041C242.876 168.01 242.945 167.964 243.002 167.906C243.059 167.847 243.104 167.777 243.133 167.701C243.163 167.624 243.176 167.542 243.172 167.46Z" fill="white"/>
<path d="M246.848 166.488L246.212 168.436H245.728L245.3 167.116L244.856 168.436H244.376L243.736 166.488H244.204L244.644 167.856L245.1 166.488H245.5L245.944 167.868L246.396 166.488H246.848Z" fill="white"/>
<path d="M283.012 71.132H220.532V106.068H283.012V71.132Z" fill="#FAFAFA"/>
<path d="M283.012 106.068C283.012 106.068 283.012 105.852 283.012 105.44C283.012 105.028 283.012 104.416 283.012 103.616C283.012 102.016 283.012 99.656 283.012 96.632C283.012 90.584 282.988 81.86 282.968 71.132L283.048 71.212L220.572 71.236L220.676 71.132C220.676 83.488 220.676 95.304 220.676 106.068L220.58 105.972L265.512 106.02L278.424 106.048H281.864H283.064H282.772H281.892H278.468L265.58 106.076L220.584 106.124H220.488V106.024C220.488 95.26 220.488 83.444 220.488 71.088V70.984H220.596L283.072 71.008H283.152V71.088C283.152 81.836 283.12 90.576 283.108 96.636C283.108 99.652 283.108 102.004 283.108 103.604C283.108 104.404 283.108 105 283.108 105.412C283.108 105.824 283.012 106.068 283.012 106.068Z" fill="#E0E0E0"/>
<path d="M237 79.46H228.168V88.292H237V79.46Z" fill="#E0E0E0"/>
<path d="M249.132 80.7C249.132 80.76 247.072 80.804 244.528 80.804C241.984 80.804 239.924 80.76 239.924 80.7C239.924 80.64 241.984 80.596 244.528 80.596C247.072 80.596 249.132 80.644 249.132 80.7Z" fill="#E0E0E0"/>
<path d="M278.548 83.876C278.548 83.936 269.9 83.98 259.236 83.98C248.572 83.98 239.924 83.936 239.924 83.876C239.924 83.816 248.568 83.772 259.236 83.772C269.904 83.772 278.548 83.82 278.548 83.876Z" fill="#E0E0E0"/>
<path d="M265.552 87.44C265.552 87.496 259.872 87.544 252.864 87.544C245.856 87.544 240.172 87.496 240.172 87.44C240.172 87.384 245.852 87.336 252.864 87.336C259.876 87.336 265.552 87.38 265.552 87.44Z" fill="#E0E0E0"/>
<path d="M273.764 93.252H231.08C228.82 93.252 226.988 95.084 226.988 97.344V97.348C226.988 99.6079 228.82 101.44 231.08 101.44H273.764C276.024 101.44 277.856 99.6079 277.856 97.348V97.344C277.856 95.084 276.024 93.252 273.764 93.252Z" fill="#E0E0E0"/>
<path d="M244.576 97.92H243.528L243.328 98.404H242.8L243.804 96.148H244.32L245.328 98.404H244.78L244.576 97.92ZM244.412 97.52L244.056 96.656L243.696 97.52H244.412Z" fill="white"/>
<path d="M247.516 96.968C247.516 97.468 247.14 97.768 246.536 97.768H246.084V98.4H245.56V96.144H246.536C247.14 96.148 247.516 96.46 247.516 96.968ZM246.988 96.968C246.988 96.72 246.828 96.568 246.508 96.568H246.084V97.368H246.508C246.828 97.356 246.988 97.2 246.988 96.968Z" fill="white"/>
<path d="M249.844 96.968C249.844 97.468 249.468 97.768 248.864 97.768H248.4V98.4H247.88V96.144H248.856C249.468 96.148 249.844 96.46 249.844 96.968ZM249.316 96.968C249.316 96.72 249.152 96.568 248.836 96.568H248.4V97.368H248.828C249.152 97.356 249.316 97.2 249.316 96.968Z" fill="white"/>
<path d="M250.216 96.148H250.736V98H251.868V98.4H250.216V96.148Z" fill="white"/>
<path d="M253.012 97.6V98.4H252.492V97.6L251.6 96.148H252.156L252.756 97.148L253.36 96.148H253.872L253.012 97.6Z" fill="white"/>
<path d="M257.088 96.148V98.4H256.66L255.536 97.028V98.4H255.02V96.144H255.452L256.576 97.512V96.144L257.088 96.148Z" fill="white"/>
<path d="M257.484 97.276C257.47 97.0289 257.531 96.7835 257.658 96.5714C257.786 96.3593 257.974 96.1903 258.199 96.0864C258.423 95.9824 258.674 95.9482 258.918 95.9883C259.162 96.0284 259.389 96.1408 259.568 96.311C259.748 96.4813 259.872 96.7015 259.925 96.9432C259.978 97.1849 259.957 97.4369 259.866 97.6667C259.774 97.8965 259.615 98.0934 259.41 98.232C259.205 98.3706 258.963 98.4444 258.716 98.444C258.557 98.4533 258.398 98.4299 258.249 98.3754C258.099 98.3208 257.962 98.2362 257.847 98.1267C257.731 98.0173 257.64 97.8853 257.577 97.739C257.515 97.5927 257.483 97.4351 257.484 97.276ZM259.424 97.276C259.421 97.1365 259.378 97.0008 259.299 96.886C259.219 96.7711 259.108 96.6823 258.979 96.6305C258.849 96.5788 258.707 96.5664 258.57 96.5951C258.434 96.6238 258.309 96.6921 258.211 96.7916C258.113 96.8911 258.047 97.0172 258.021 97.1542C257.994 97.2912 258.009 97.433 258.063 97.5616C258.117 97.6903 258.208 97.8002 258.324 97.8775C258.44 97.9547 258.576 97.996 258.716 97.996C258.81 97.9983 258.904 97.9811 258.992 97.9456C259.08 97.91 259.159 97.8569 259.226 97.7894C259.292 97.7219 259.344 97.6415 259.378 97.5532C259.412 97.4649 259.428 97.3706 259.424 97.276Z" fill="white"/>
<path d="M263.68 96.148L262.944 98.4H262.4L261.9 96.872L261.372 98.4H260.8L260.06 96.144H260.6L261.108 97.744L261.64 96.144H262.124L262.64 97.744L263.164 96.144L263.68 96.148Z" fill="white"/>
<path d="M239.512 17.384H54.3999V186.652H239.512V17.384Z" fill="white"/>
<path d="M239.512 17.384H54.3999V28.644H239.512V17.384Z" fill="#E0E0E0"/>
<path d="M214.592 175.784C214.592 175.844 183.616 175.888 145.392 175.888C107.168 175.888 76.1919 175.844 76.1919 175.784C76.1919 175.724 107.164 175.68 145.392 175.68C183.62 175.68 214.592 175.728 214.592 175.784Z" fill="#263238"/>
<path d="M133.944 141.828H131.204V156.26H133.944V141.828Z" fill="#E0E0E0"/>
<path d="M133.948 156.256C133.942 156.157 133.942 156.059 133.948 155.96C133.948 155.752 133.948 155.476 133.948 155.128C133.948 154.392 133.948 153.36 133.916 152.076C133.916 149.484 133.888 145.896 133.872 141.828L133.976 141.928H131.2C131.404 141.72 131.256 141.872 131.304 141.828V146.228C131.304 147.628 131.304 148.96 131.304 150.196C131.304 152.656 131.28 154.74 131.272 156.268L131.212 156.212L133.212 156.244H133.748H133.944C133.887 156.25 133.829 156.25 133.772 156.244H133.244L131.2 156.272H131.148V156.212C131.148 154.684 131.128 152.612 131.116 150.14C131.116 148.904 131.116 147.572 131.116 146.172V144.02C131.116 143.656 131.116 143.284 131.116 142.912V141.792L131.224 141.684H134.064V141.788C134.064 145.884 134.032 149.496 134.02 152.108C134.02 153.38 133.996 154.408 133.992 155.14C133.992 155.476 133.992 155.744 133.992 155.94C133.985 156.046 133.971 156.152 133.948 156.256Z" fill="#263238"/>
<path d="M138.92 139.64H126.12C125.209 139.64 124.334 139.278 123.689 138.634C123.044 137.99 122.681 137.116 122.68 136.204H142.36C142.359 137.116 141.996 137.99 141.351 138.634C140.706 139.278 139.832 139.64 138.92 139.64Z" fill="#263238"/>
<path d="M150.22 136.876H127.884V132.1H150.22C150.857 132.1 151.467 132.353 151.917 132.803C152.367 133.253 152.62 133.863 152.62 134.5C152.614 135.132 152.358 135.737 151.909 136.182C151.46 136.626 150.853 136.876 150.22 136.876Z" fill="#15CF92"/>
<path d="M110.524 97.788C109.91 97.8709 109.353 98.1904 108.971 98.6783C108.589 99.1663 108.413 99.7841 108.48 100.4L111.704 129.704C111.927 131.677 112.867 133.498 114.348 134.821C115.828 136.144 117.743 136.876 119.728 136.876H128.248C128.885 136.876 129.495 136.623 129.945 136.173C130.395 135.723 130.648 135.113 130.648 134.476C130.648 133.839 130.395 133.229 129.945 132.779C129.495 132.329 128.885 132.076 128.248 132.076H121.012C120.018 132.076 119.058 131.715 118.309 131.06C117.561 130.406 117.076 129.501 116.944 128.516L113.2 99.832C113.159 99.5222 113.058 99.2235 112.901 98.953C112.745 98.6825 112.537 98.4455 112.288 98.2557C112.04 98.0658 111.757 97.9268 111.455 97.8465C111.153 97.7663 110.838 97.7464 110.528 97.788H110.524Z" fill="#15CF92"/>
<path d="M137.668 132.332L113.384 132.672L111.012 97.764L131.336 97.636C132.315 97.6413 133.251 98.0348 133.94 98.7301C134.628 99.4253 135.012 100.365 135.008 101.344L137.668 132.332Z" fill="#15CF92"/>
<g opacity="0.3">
<path d="M110.524 97.788C109.91 97.8709 109.353 98.1904 108.971 98.6783C108.589 99.1663 108.413 99.7841 108.48 100.4L111.704 129.704C111.927 131.677 112.867 133.498 114.348 134.821C115.828 136.144 117.743 136.876 119.728 136.876H128.248C128.885 136.876 129.495 136.623 129.945 136.173C130.395 135.723 130.648 135.113 130.648 134.476C130.648 133.839 130.395 133.229 129.945 132.779C129.495 132.329 128.885 132.076 128.248 132.076H120.492C118.436 132.076 116.992 130.62 116.72 128.58L113.2 99.832C113.159 99.5222 113.058 99.2235 112.901 98.953C112.745 98.6825 112.537 98.4455 112.288 98.2557C112.04 98.0658 111.757 97.9268 111.455 97.8465C111.153 97.7663 110.838 97.7464 110.528 97.788H110.524Z" fill="black"/>
</g>
<path d="M135.228 139.64H129.92V142.4H135.228V139.64Z" fill="#263238"/>
<path d="M133.568 155.448H131.508C130.631 155.448 129.92 156.159 129.92 157.036V166.504C129.92 167.381 130.631 168.092 131.508 168.092H133.568C134.445 168.092 135.156 167.381 135.156 166.504V157.036C135.156 156.159 134.445 155.448 133.568 155.448Z" fill="#E0E0E0"/>
<path d="M133.572 168.092C133.572 168.092 133.688 168.092 133.9 168.036C134.163 167.97 134.404 167.839 134.602 167.654C134.8 167.469 134.948 167.237 135.032 166.98C135.099 166.719 135.122 166.449 135.1 166.18C135.1 165.584 135.1 164.908 135.1 164.18C135.1 162.676 135.1 160.9 135.076 158.928C135.076 158.436 135.076 157.928 135.076 157.412C135.094 157.16 135.075 156.907 135.02 156.66C134.955 156.417 134.828 156.195 134.652 156.016C134.475 155.829 134.253 155.692 134.008 155.616C133.746 155.556 133.476 155.536 133.208 155.556H131.52C131.255 155.556 130.996 155.627 130.768 155.762C130.54 155.896 130.352 156.089 130.224 156.32C130.1 156.547 130.035 156.801 130.036 157.06V157.86C130.036 158.932 130.036 159.972 130.036 160.96C130.036 162.932 130.036 164.708 130.016 166.208C129.979 166.552 130.039 166.9 130.188 167.212C130.325 167.463 130.53 167.671 130.778 167.812C131.027 167.953 131.31 168.023 131.596 168.012H132.292L133.256 168.032C133.368 168.027 133.481 168.034 133.592 168.052C133.48 168.061 133.368 168.061 133.256 168.052L132.292 168.072H131.596C131.288 168.087 130.981 168.015 130.712 167.864C130.442 167.714 130.221 167.49 130.072 167.22C129.987 167.061 129.927 166.89 129.896 166.712C129.871 166.526 129.861 166.339 129.868 166.152C129.868 164.652 129.868 162.876 129.844 160.904C129.844 159.916 129.844 158.876 129.844 157.804V157.004C129.841 156.78 129.882 156.558 129.965 156.351C130.049 156.143 130.173 155.954 130.33 155.795C130.487 155.636 130.674 155.509 130.88 155.423C131.087 155.336 131.308 155.292 131.532 155.292H133.2C133.486 155.271 133.773 155.294 134.052 155.36C134.329 155.445 134.58 155.598 134.784 155.804C134.975 156.01 135.113 156.26 135.184 156.532C135.24 156.795 135.26 157.064 135.244 157.332C135.244 157.848 135.244 158.356 135.244 158.848C135.244 160.82 135.244 162.596 135.224 164.1C135.224 164.844 135.224 165.52 135.224 166.1C135.241 166.38 135.211 166.661 135.136 166.932C135.057 167.159 134.93 167.366 134.764 167.54C134.535 167.777 134.239 167.938 133.916 168C133.807 168.049 133.691 168.08 133.572 168.092Z" fill="#263238"/>
<path d="M147.82 167.308H116.66C116.244 167.293 115.829 167.366 115.442 167.521C115.055 167.677 114.706 167.912 114.416 168.212C113.26 169.412 113.332 171.412 113.336 171.484L114.756 171.424C114.756 171.024 114.832 169.824 115.444 169.192C115.601 169.036 115.789 168.914 115.995 168.834C116.202 168.754 116.423 168.718 116.644 168.728H124.82V172.348H126.24V168.728H147.804C148.243 168.729 148.664 168.904 148.974 169.214C149.284 169.525 149.459 169.945 149.46 170.384V171.452H150.88V170.4C150.883 169.585 150.563 168.801 149.989 168.221C149.416 167.642 148.636 167.313 147.82 167.308Z" fill="#E0E0E0"/>
<path d="M147.82 167.308C147.953 167.299 148.087 167.299 148.22 167.308C148.6 167.349 148.969 167.462 149.308 167.64C149.859 167.941 150.31 168.397 150.604 168.952C150.789 169.306 150.903 169.694 150.94 170.092C150.968 170.52 150.94 170.96 150.96 171.436V171.488H149.436V171.432C149.396 170.74 149.596 169.892 149.016 169.3C148.743 169.001 148.367 168.817 147.964 168.784C147.564 168.784 147.1 168.784 146.652 168.784H140.728H126.272L126.368 168.684C126.368 169.824 126.368 171.056 126.368 172.304V172.408H124.744V168.684L124.848 168.788H116.524C116.239 168.797 115.962 168.884 115.724 169.04C115.494 169.208 115.312 169.432 115.196 169.692C114.96 170.22 114.844 170.794 114.856 171.372V171.476H114.76L113.34 171.536H113.236V171.432C113.223 170.76 113.327 170.092 113.544 169.456C113.748 168.819 114.126 168.252 114.636 167.82C115.156 167.413 115.792 167.181 116.452 167.16C117.092 167.16 117.708 167.16 118.328 167.16H125.392L137.18 167.184L144.996 167.212L147.096 167.232H147.64H147.824C147.824 167.232 147.764 167.232 147.64 167.232H147.096H144.996L137.18 167.264L125.392 167.288H118.328C117.712 167.288 117.084 167.288 116.464 167.288C115.845 167.307 115.248 167.526 114.764 167.912C114.282 168.319 113.924 168.855 113.732 169.456C113.526 170.068 113.428 170.711 113.444 171.356L113.336 171.26L114.752 171.2L114.656 171.304C114.641 170.691 114.764 170.083 115.016 169.524C115.148 169.233 115.353 168.98 115.612 168.792C115.881 168.614 116.194 168.514 116.516 168.504H124.944V168.608C124.944 169.852 124.944 171.084 124.944 172.228L124.844 172.128H126.26L126.16 172.228C126.16 170.98 126.16 169.748 126.16 168.608V168.508H126.26H140.716H146.64C147.092 168.508 147.524 168.508 147.964 168.508C148.387 168.545 148.782 168.737 149.073 169.047C149.363 169.357 149.53 169.763 149.54 170.188C149.54 170.568 149.54 170.936 149.54 171.292L149.484 171.236H150.904L150.852 171.284C150.852 170.812 150.872 170.36 150.852 169.948C150.821 169.56 150.714 169.182 150.536 168.836C150.257 168.289 149.823 167.837 149.288 167.536C148.957 167.352 148.595 167.232 148.22 167.18C147.952 167.316 147.82 167.316 147.82 167.308Z" fill="#263238"/>
<path d="M128.28 174.036C128.281 174.586 128.119 175.124 127.814 175.582C127.509 176.039 127.075 176.396 126.567 176.607C126.059 176.818 125.5 176.874 124.96 176.767C124.421 176.66 123.925 176.396 123.536 176.007C123.147 175.619 122.882 175.123 122.774 174.584C122.666 174.044 122.721 173.485 122.931 172.977C123.142 172.469 123.498 172.034 123.955 171.729C124.413 171.423 124.95 171.26 125.5 171.26C126.237 171.26 126.943 171.552 127.465 172.073C127.986 172.593 128.279 173.299 128.28 174.036Z" fill="#263238"/>
<path d="M116.824 173.36C116.824 173.91 116.661 174.447 116.356 174.904C116.05 175.362 115.616 175.718 115.108 175.928C114.6 176.139 114.041 176.194 113.502 176.087C112.963 175.979 112.467 175.715 112.078 175.326C111.69 174.937 111.425 174.442 111.318 173.902C111.21 173.363 111.265 172.804 111.476 172.296C111.686 171.788 112.043 171.354 112.5 171.049C112.957 170.743 113.494 170.58 114.044 170.58C114.781 170.58 115.489 170.873 116.01 171.394C116.531 171.916 116.824 172.623 116.824 173.36Z" fill="#263238"/>
<path d="M152.644 173.46C152.645 174.01 152.482 174.548 152.177 175.006C151.872 175.463 151.439 175.82 150.931 176.031C150.423 176.242 149.864 176.298 149.324 176.191C148.785 176.084 148.289 175.82 147.9 175.431C147.51 175.043 147.245 174.547 147.138 174.008C147.03 173.468 147.085 172.909 147.295 172.401C147.506 171.893 147.862 171.458 148.319 171.153C148.776 170.847 149.314 170.684 149.864 170.684C150.601 170.684 151.307 170.976 151.828 171.497C152.35 172.017 152.643 172.723 152.644 173.46Z" fill="#263238"/>
<path d="M150.82 132.1C150.82 132.156 143.972 132.228 135.528 132.26C127.084 132.292 120.236 132.26 120.236 132.212C120.236 132.164 127.08 132.084 135.528 132.052C143.976 132.02 150.82 132.04 150.82 132.1Z" fill="#263238"/>
<path d="M116.752 128.128C116.696 128.128 115.852 121.808 114.872 113.996C113.892 106.184 113.14 99.84 113.196 99.832C113.252 99.824 114.096 106.152 115.076 113.968C116.056 121.784 116.8 128.12 116.752 128.128Z" fill="#263238"/>
<path d="M112.94 97.72C113.01 97.6932 113.082 97.6744 113.156 97.664C113.365 97.6278 113.576 97.6064 113.788 97.6C114.573 97.5726 115.356 97.6933 116.096 97.956C116.613 98.1428 117.075 98.4564 117.44 98.868C117.841 99.3427 118.186 99.8622 118.468 100.416C119.068 101.572 119.736 102.816 120.468 104.132C121.936 106.736 123.316 109.072 124.252 110.8C124.728 111.66 125.092 112.364 125.34 112.856C125.452 113.084 125.54 113.256 125.616 113.424C125.653 113.489 125.68 113.559 125.696 113.632C125.651 113.573 125.611 113.51 125.576 113.444L125.268 112.892L124.124 110.872C123.156 109.164 121.756 106.844 120.284 104.232C119.548 102.928 118.884 101.66 118.284 100.508C118.015 99.9624 117.682 99.4508 117.292 98.984C116.951 98.585 116.515 98.2782 116.024 98.092C115.303 97.8267 114.54 97.6913 113.772 97.692C113.244 97.676 112.944 97.74 112.94 97.72Z" fill="#263238"/>
<path d="M108.644 99.24C108.696 99.268 106.856 102.476 104.54 106.4C102.224 110.324 100.304 113.488 100.252 113.46C100.2 113.432 102.04 110.224 104.36 106.296C106.68 102.368 108.596 99.2 108.644 99.24Z" fill="#263238"/>
<path d="M130.34 113.456H97.0483V123.272H130.34V113.456Z" fill="#FAFAFA"/>
<path d="M106.028 116.504L104.4 120.272H103.54L101.916 116.504H102.856L104 119.2L105.16 116.508L106.028 116.504Z" fill="#263238"/>
<path d="M108.692 119.464H106.944L106.612 120.264H105.72L107.396 116.496H108.256L109.94 120.264H109.024L108.692 119.464ZM108.4 118.8L107.804 117.356L107.224 118.8H108.4Z" fill="#263238"/>
<path d="M110.04 118.4C110.063 117.993 110.205 117.601 110.45 117.274C110.695 116.948 111.03 116.7 111.415 116.564C111.799 116.427 112.215 116.407 112.611 116.506C113.007 116.605 113.365 116.818 113.64 117.12L113.08 117.636C112.966 117.496 112.822 117.384 112.658 117.308C112.495 117.232 112.316 117.194 112.136 117.196C111.818 117.196 111.513 117.322 111.288 117.547C111.062 117.773 110.936 118.078 110.936 118.396C110.936 118.714 111.062 119.019 111.288 119.245C111.513 119.47 111.818 119.596 112.136 119.596C112.317 119.598 112.495 119.559 112.659 119.482C112.822 119.405 112.966 119.292 113.08 119.152L113.64 119.668C113.366 119.971 113.009 120.187 112.612 120.287C112.216 120.387 111.799 120.368 111.414 120.231C111.029 120.095 110.693 119.847 110.448 119.52C110.204 119.193 110.062 118.8 110.04 118.392V118.4Z" fill="#263238"/>
<path d="M116.62 119.464H114.872L114.54 120.264H113.648L115.324 116.496H116.184L117.868 120.264H116.952L116.62 119.464ZM116.348 118.804L115.748 117.36L115.152 118.8L116.348 118.804Z" fill="#263238"/>
<path d="M121.712 116.504V120.272H120.996L119.12 118V120.288H118.26V116.52H118.98L120.852 118.808V116.52L121.712 116.504Z" fill="#263238"/>
<path d="M123.38 117.2H122.18V116.488H125.46V117.2H124.26V120.256H123.388L123.38 117.2Z" fill="#263238"/>
<path d="M129.264 122.4C129.264 122.4 129.264 122.352 129.264 122.256C129.264 122.16 129.264 122.024 129.264 121.856C129.264 121.492 129.264 120.964 129.264 120.284C129.264 118.908 129.264 116.912 129.232 114.392L129.292 114.452L97.8919 114.496C97.9359 114.448 97.7839 114.6 97.9919 114.392V122.392L97.8879 122.292L120.288 122.336L126.892 122.364H128.676H129.14H129.3C129.251 122.368 129.201 122.368 129.152 122.364H128.7H126.94L120.36 122.392L97.8959 122.44H97.7959V122.4C97.7959 121.108 97.7959 119.788 97.7959 118.452V114.368C98.0039 114.16 97.8559 114.308 97.9039 114.264L129.304 114.304H129.368V114.368C129.368 116.904 129.34 118.912 129.332 120.296C129.332 120.972 129.332 121.496 129.332 121.856V122.256C129.315 122.306 129.292 122.355 129.264 122.4Z" fill="#263238"/>
<path d="M132.52 64.752H135.052L132.544 66.8H130.732L132.52 64.752Z" fill="#263238"/>
<path d="M104.092 84.064V89.332H100.868V84.592C100.868 83.264 100.288 82.704 99.356 82.704C98.32 82.704 97.52 83.352 97.52 84.88V89.332H94.292V76.728H97.52V80.972C98.282 80.299 99.2718 79.9414 100.288 79.972C102.444 79.972 104.092 81.2 104.092 84.064Z" fill="#263238"/>
<path d="M105.76 77.388C105.76 76.42 106.56 75.672 107.728 75.672C108.896 75.672 109.7 76.368 109.7 77.336C109.7 78.304 108.92 79.104 107.728 79.104C106.536 79.104 105.76 78.356 105.76 77.388ZM106.116 80.124H109.344V89.324H106.116V80.124Z" fill="#263238"/>
<path d="M117.6 79.972V82.876C117.358 82.8424 117.113 82.8251 116.868 82.824C115.56 82.824 114.66 83.488 114.66 85.1V89.332H111.432V80.132H114.508V81.236C115.172 80.4 116.24 79.972 117.6 79.972Z" fill="#263238"/>
<path d="M118.568 77.388C118.568 76.42 119.348 75.672 120.54 75.672C121.732 75.672 122.508 76.368 122.508 77.336C122.508 78.304 121.728 79.104 120.54 79.104C119.352 79.104 118.568 78.356 118.568 77.388ZM118.924 80.124H122.152V89.324H118.924V80.124Z" fill="#263238"/>
<path d="M134.044 84.064V89.332H130.8V84.592C130.8 83.264 130.224 82.704 129.288 82.704C128.252 82.704 127.452 83.352 127.452 84.88V89.332H124.228V80.132H127.3V81.132C127.683 80.7506 128.14 80.4516 128.643 80.2535C129.146 80.0554 129.684 79.9623 130.224 79.98C132.4 79.972 134.044 81.2 134.044 84.064Z" fill="#263238"/>
<path d="M146.104 80.124V87.648C146.104 91.132 144.136 92.78 140.704 92.78C138.936 92.78 137.256 92.38 136.132 91.58L137.304 89.32C138.213 89.9657 139.301 90.3111 140.416 90.308C142.148 90.308 142.876 89.508 142.876 88.08V87.776C142.529 88.148 142.105 88.4385 141.632 88.6266C141.16 88.8148 140.652 88.8958 140.144 88.864C137.696 88.864 135.624 87.128 135.624 84.412C135.624 81.696 137.696 79.98 140.144 79.98C141.416 79.98 142.4 80.38 143.032 81.252V80.132L146.104 80.124ZM142.904 84.404C142.904 83.284 142.052 82.536 140.904 82.536C139.756 82.536 138.88 83.284 138.88 84.404C138.88 85.524 139.748 86.288 140.904 86.288C141.162 86.3068 141.422 86.2718 141.666 86.1852C141.91 86.0986 142.134 85.9622 142.322 85.7848C142.511 85.6073 142.661 85.3926 142.763 85.1542C142.864 84.9159 142.915 84.659 142.912 84.4L142.904 84.404Z" fill="#263238"/>
<path d="M147.6 87.564C147.6 87.0505 147.804 86.5581 148.167 86.195C148.53 85.832 149.023 85.628 149.536 85.628C150.05 85.628 150.542 85.832 150.905 86.195C151.268 86.5581 151.472 87.0505 151.472 87.564C151.472 88.0774 151.268 88.5699 150.905 88.9329C150.542 89.296 150.05 89.5 149.536 89.5C149.023 89.5 148.53 89.296 148.167 88.9329C147.804 88.5699 147.6 88.0774 147.6 87.564Z" fill="#15CF92"/>
<path d="M138.28 67.524V69.808C138.09 69.782 137.899 69.7686 137.708 69.768C136.68 69.768 135.976 70.288 135.976 71.552V74.872H133.44V67.644H135.84V68.512C136.376 67.86 137.2 67.524 138.28 67.524Z" fill="#263238"/>
<path d="M146.604 71.9H141.348C141.564 72.632 142.188 73.06 143.124 73.06C143.429 73.0706 143.734 73.0205 144.019 72.9127C144.305 72.8049 144.566 72.6415 144.788 72.432L146.124 73.82C145.428 74.592 144.416 74.996 143.044 74.996C140.468 74.996 138.8 73.396 138.8 71.248C138.8 69.1 140.496 67.524 142.776 67.524C144.908 67.524 146.644 68.888 146.644 71.272C146.644 71.46 146.616 71.7 146.604 71.9ZM141.308 70.568H144.268C144.206 70.2212 144.023 69.9074 143.753 69.6814C143.482 69.4554 143.141 69.3316 142.788 69.3316C142.436 69.3316 142.095 69.4554 141.824 69.6814C141.554 69.9074 141.371 70.2212 141.308 70.568Z" fill="#263238"/>
<path d="M122.52 67.644L119.944 74.872H117.492L116.132 70.94L114.716 74.872H112.264L109.688 67.644H112.088L113.568 72.02L115.104 67.644H117.264L118.756 72.044L120.292 67.644H122.52Z" fill="#263238"/>
<path d="M130.44 71.9H125.2C125.416 72.632 126.04 73.06 126.976 73.06C127.282 73.0707 127.587 73.0207 127.873 72.9129C128.159 72.8051 128.421 72.6417 128.644 72.432L129.976 73.82C129.284 74.592 128.268 74.996 126.896 74.996C124.32 74.996 122.656 73.396 122.656 71.248C122.656 69.1 124.348 67.524 126.628 67.524C128.764 67.524 130.496 68.888 130.496 71.272C130.48 71.46 130.452 71.7 130.44 71.9ZM125.144 70.568H128.108C128.048 70.2187 127.866 69.902 127.595 69.6738C127.324 69.4455 126.981 69.3203 126.626 69.3203C126.272 69.3203 125.929 69.4455 125.658 69.6738C125.386 69.902 125.205 70.2187 125.144 70.568Z" fill="#263238"/>
<path d="M111.564 54.264L111.164 45.764C111.148 45.4282 111.01 45.1098 110.776 44.8689C110.542 44.6279 110.227 44.481 109.892 44.456C109.54 44.4286 109.19 44.5379 108.916 44.7613C108.642 44.9848 108.464 45.3051 108.42 45.656L107.344 54.176C107.327 54.3269 107.342 54.4797 107.389 54.6243C107.435 54.769 107.511 54.9023 107.612 55.0155C107.713 55.1287 107.837 55.2194 107.976 55.2815C108.114 55.3436 108.264 55.3758 108.416 55.376H110.488C110.632 55.375 110.775 55.3453 110.907 55.2886C111.039 55.2319 111.159 55.1493 111.259 55.0458C111.36 54.9423 111.438 54.8198 111.49 54.6856C111.543 54.5513 111.568 54.408 111.564 54.264Z" fill="#E0E0E0"/>
<path d="M107.712 39.644C107.847 39.2572 108.094 38.9192 108.422 38.6727C108.749 38.4263 109.142 38.2824 109.551 38.2594C109.96 38.2363 110.367 38.3351 110.72 38.5433C111.073 38.7514 111.356 39.0595 111.534 39.4287C111.712 39.7979 111.777 40.2115 111.719 40.6173C111.662 41.0231 111.486 41.4028 111.213 41.7084C110.94 42.014 110.583 42.2318 110.186 42.3343C109.789 42.4367 109.371 42.4192 108.984 42.284C108.727 42.1942 108.49 42.0547 108.287 41.8734C108.084 41.6921 107.919 41.4726 107.801 41.2275C107.683 40.9823 107.614 40.7163 107.599 40.4446C107.584 40.1729 107.622 39.9009 107.712 39.644Z" fill="#E0E0E0"/>
<path d="M89.3161 65.004L84.3641 60.8C84.1676 60.6356 83.9181 60.5482 83.6621 60.5541C83.406 60.56 83.1607 60.6587 82.9721 60.832C82.7741 61.0147 82.654 61.2667 82.6369 61.5356C82.6198 61.8045 82.7068 62.0696 82.8801 62.276L87.0721 67.308C87.1472 67.3974 87.2404 67.4699 87.3455 67.5208C87.4506 67.5717 87.5653 67.5997 87.682 67.6031C87.7987 67.6065 87.9149 67.5852 88.0228 67.5405C88.1307 67.4959 88.2279 67.4289 88.3081 67.344L89.3841 66.188C89.4597 66.107 89.5181 66.0114 89.5558 65.9072C89.5935 65.8029 89.6096 65.6921 89.6033 65.5814C89.5969 65.4708 89.5682 65.3626 89.5188 65.2633C89.4695 65.164 89.4005 65.0758 89.3161 65.004Z" fill="#F5F5F5"/>
<path d="M79.1562 59.552C79.005 59.2722 78.9407 58.9538 78.9713 58.6372C79.002 58.3207 79.1262 58.0205 79.3282 57.7749C79.5303 57.5293 79.8009 57.3495 80.1056 57.2584C80.4102 57.1673 80.7352 57.1691 81.0388 57.2635C81.3425 57.3579 81.6111 57.5407 81.8105 57.7884C82.0098 58.0362 82.1308 58.3377 82.158 58.6546C82.1852 58.9714 82.1174 59.2892 81.9632 59.5673C81.8089 59.8454 81.5754 60.0712 81.2922 60.216C80.92 60.4063 80.4881 60.4434 80.0889 60.3193C79.6897 60.1952 79.3549 59.9198 79.1562 59.552Z" fill="#F5F5F5"/>
<path d="M85.1162 45.236L92.7162 58.132C93.0167 58.6419 93.4933 59.0243 94.0563 59.207C94.6192 59.3898 95.2296 59.3602 95.7722 59.124C96.3429 58.8756 96.7965 58.4175 97.0391 57.8443C97.2818 57.2712 97.2951 56.6267 97.0762 56.044L91.7522 41.9C91.6568 41.6481 91.509 41.4194 91.3187 41.2288C91.1283 41.0383 90.8997 40.8903 90.6479 40.7947C90.3961 40.6991 90.1269 40.6579 89.858 40.674C89.5892 40.6901 89.3268 40.763 89.0882 40.888L85.8602 42.584C85.6329 42.7049 85.4324 42.8706 85.271 43.0712C85.1095 43.2717 84.9904 43.5029 84.9209 43.7508C84.8513 43.9987 84.8328 44.2582 84.8664 44.5134C84.8999 44.7687 84.9849 45.0145 85.1162 45.236Z" fill="#E0E0E0"/>
<path d="M103.124 64.824C103.231 65.5376 103.125 66.267 102.818 66.92C102.511 67.5731 102.017 68.1204 101.399 68.4927C100.781 68.865 100.066 69.0456 99.345 69.0117C98.6242 68.9777 97.9296 68.7307 97.3492 68.302C96.7687 67.8732 96.3285 67.2819 96.0841 66.6029C95.8398 65.9239 95.8023 65.1877 95.9765 64.4874C96.1506 63.7871 96.5285 63.1542 97.0624 62.6687C97.5963 62.1832 98.2622 61.867 98.9759 61.76C99.9322 61.6167 100.906 61.8589 101.684 62.4334C102.462 63.008 102.98 63.8678 103.124 64.824Z" fill="#E0E0E0"/>
<path d="M239.508 186.652C239.508 185.9 239.472 119.176 239.42 17.384L239.508 17.472L54.4001 17.488L54.5041 17.384C54.5041 79.048 54.5041 137.032 54.5041 186.652L54.4161 186.56L239.524 186.652L54.4001 186.744H54.3081V186.652C54.3081 137.052 54.3081 79.052 54.3081 17.384V17.28H54.4281H239.52H239.6V17.368C239.544 119.176 239.508 185.9 239.508 186.652Z" fill="#263238"/>
<path d="M59.5442 24.468C60.3903 24.468 61.0762 23.7821 61.0762 22.936C61.0762 22.0899 60.3903 21.404 59.5442 21.404C58.6981 21.404 58.0122 22.0899 58.0122 22.936C58.0122 23.7821 58.6981 24.468 59.5442 24.468Z" fill="white"/>
<path d="M64.8079 24.468C65.654 24.468 66.3399 23.7821 66.3399 22.936C66.3399 22.0899 65.654 21.404 64.8079 21.404C63.9618 21.404 63.2759 22.0899 63.2759 22.936C63.2759 23.7821 63.9618 24.468 64.8079 24.468Z" fill="white"/>
<path d="M70.072 24.468C70.9181 24.468 71.604 23.7821 71.604 22.936C71.604 22.0899 70.9181 21.404 70.072 21.404C69.2259 21.404 68.54 22.0899 68.54 22.936C68.54 23.7821 69.2259 24.468 70.072 24.468Z" fill="white"/>
<path d="M168.624 54.8C167.327 54.4742 166.073 53.9976 164.888 53.38C165.546 53.5051 166.188 53.7065 166.8 53.98C167.438 54.1809 168.05 54.4561 168.624 54.8Z" fill="#455A64"/>
<path d="M163.508 62.856C163.108 62.812 162.028 63.348 161.128 64.416L161.084 64.464C160.448 65.18 160.052 62.98 160.012 62.168C160.001 62.0419 159.962 61.9199 159.897 61.8109C159.833 61.702 159.745 61.6089 159.64 61.5387C159.534 61.4684 159.415 61.4226 159.289 61.4049C159.164 61.3871 159.036 61.3977 158.916 61.436L156.116 62.508L155.316 62.48C155.121 62.532 154.953 62.6557 154.845 62.8263C154.738 62.9969 154.699 63.2018 154.736 63.4L155.728 67.756L155.676 68.924L161.036 70.036L161.324 67.124C161.428 66.792 161.564 66.4 161.724 65.956C161.885 65.5548 162.114 65.1842 162.4 64.86C162.714 64.4913 163.065 64.1561 163.448 63.86L163.54 63.808C163.602 63.778 163.658 63.7358 163.704 63.684C163.773 63.6281 163.825 63.5537 163.854 63.4696C163.882 63.3854 163.887 63.2949 163.866 63.2084C163.846 63.1218 163.801 63.0428 163.738 62.9805C163.674 62.9182 163.595 62.875 163.508 62.856Z" fill="#FFBE9D"/>
<path d="M162.332 50.576C162.332 50.576 159.132 50.176 154.332 46.352C149.532 42.528 146.92 37.088 146.384 37.152C145.848 37.216 143.384 36.352 139.82 46.536C136.256 56.72 138.22 58.808 139.124 58.708C140.028 58.608 145.924 56.344 149.74 56.42C153.556 56.496 158.612 58.02 158.612 58.02L162.332 50.576Z" fill="#15CF92"/>
<path d="M169.492 55.264L168.612 57.396L168.212 58.352C167.952 58.9834 167.46 59.491 166.837 59.7701C166.214 60.0492 165.508 60.0786 164.864 59.852L157.924 58.144L160.996 48.844L168.044 51.788C168.696 52.0581 169.214 52.5755 169.486 53.227C169.757 53.8784 169.759 54.6109 169.492 55.264Z" fill="#263238"/>
<path d="M166.756 58.4L164.432 62.52L163.372 62.18L156.12 67.6L154.316 63.68C154.316 63.68 158.536 62.08 159.368 60.62C160.2 59.16 159.324 58.804 159.324 58.804L161.364 56.664L166.756 58.4Z" fill="#263238"/>
<path d="M140.188 46.692C138.3 52.2 137.748 57 138.96 57.416C140.172 57.832 142.68 53.7 144.56 48.192C146.44 42.684 147 37.884 145.788 37.468C144.576 37.052 142.076 41.2 140.188 46.692Z" fill="#263238"/>
<path d="M170.344 58.148L168.468 57.748L169.396 55.496L170.84 56.216L170.344 58.148Z" fill="#455A64"/>
<path d="M168.188 56.108C168.164 56.172 167.224 55.904 166.084 55.512C165.38 55.3122 164.7 55.0372 164.056 54.692C164.776 54.8179 165.481 55.0176 166.16 55.288C166.862 55.4897 167.542 55.7646 168.188 56.108Z" fill="#455A64"/>
<path d="M167.6 57.516C167.6 57.548 167.376 57.516 167.02 57.444L166.396 57.3C166.164 57.24 165.92 57.144 165.66 57.056C165.02 56.8696 164.407 56.6007 163.836 56.256C163.86 56.192 164.708 56.476 165.74 56.84C165.996 56.932 166.236 57.032 166.464 57.104C166.692 57.176 166.892 57.232 167.06 57.292C167.404 57.396 167.6 57.484 167.6 57.516Z" fill="#455A64"/>
<path d="M144.94 45.056C144.94 45.056 142.056 43.624 140.912 47.456C139.768 51.288 142.692 51.6 142.692 51.6C143.748 49.5363 144.505 47.3329 144.94 45.056Z" fill="#FAFAFA"/>
<path d="M147.424 40.4C147.43 40.6394 147.417 40.8788 147.384 41.116C147.34 41.572 147.28 42.236 147.18 43.056C147.104 43.456 147.016 43.904 146.928 44.38C146.88 44.616 146.832 44.864 146.784 45.116C146.756 45.244 146.732 45.372 146.708 45.516C146.684 45.66 146.636 45.776 146.6 45.916L146.136 47.56C146.096 47.704 146.052 47.848 146.012 47.992C145.972 48.136 145.908 48.276 145.86 48.424L145.532 49.296C145.424 49.588 145.312 49.88 145.204 50.168C145.148 50.312 145.104 50.456 145.04 50.592L144.848 50.992L144.116 52.54C144.06 52.66 144.004 52.784 143.94 52.9C143.876 53.016 143.812 53.132 143.744 53.244L143.368 53.896C143.124 54.296 142.9 54.696 142.692 55.06C142.228 55.74 141.84 56.28 141.572 56.66C141.442 56.8596 141.296 57.0482 141.136 57.224C141.237 57.0083 141.358 56.8022 141.496 56.608L142.552 54.972L143.2 53.8L143.564 53.148L143.752 52.808C143.816 52.692 143.868 52.568 143.924 52.444C144.152 51.952 144.392 51.436 144.636 50.904L144.824 50.504C144.888 50.368 144.932 50.22 144.988 50.08C145.096 49.796 145.204 49.504 145.312 49.212L145.64 48.348C145.688 48.204 145.752 48.064 145.792 47.92C145.832 47.776 145.876 47.632 145.916 47.492L146.392 45.86C146.428 45.732 146.472 45.604 146.5 45.46C146.528 45.316 146.556 45.204 146.58 45.06C146.636 44.812 146.684 44.568 146.736 44.332C146.836 43.86 146.932 43.424 147.016 43.02C147.132 42.22 147.228 41.564 147.292 41.096C147.318 40.861 147.362 40.6283 147.424 40.4Z" fill="#263238"/>
<path d="M158.028 60.552C157.882 60.6072 157.763 60.7152 157.693 60.8545C157.623 60.9939 157.609 61.1543 157.652 61.304C157.816 61.908 158.088 62.852 158.3 63.432C158.359 63.6209 158.452 63.7972 158.576 63.952C158.637 64.0269 158.717 64.0835 158.808 64.1152C158.899 64.147 158.998 64.1528 159.092 64.132C159.187 64.0914 159.27 64.0257 159.331 63.9419C159.393 63.8581 159.43 63.7593 159.44 63.656C159.456 63.4453 159.431 63.2335 159.368 63.032C159.232 62.472 158.968 61.628 158.768 60.94C158.748 60.8637 158.712 60.7924 158.664 60.7303C158.615 60.6683 158.554 60.617 158.485 60.5795C158.415 60.542 158.339 60.5191 158.26 60.5123C158.182 60.5055 158.103 60.515 158.028 60.54V60.552Z" fill="#FFBE9D"/>
<path d="M157.132 61.6C156.986 61.6544 156.865 61.7621 156.795 61.9015C156.724 62.041 156.709 62.2018 156.752 62.352C156.92 62.956 157.192 63.9 157.404 64.476C157.461 64.6664 157.553 64.8442 157.676 65C157.737 65.0749 157.817 65.1315 157.908 65.1632C158 65.195 158.098 65.2008 158.192 65.18C158.289 65.1409 158.372 65.0756 158.434 64.9915C158.495 64.9074 158.532 64.8079 158.54 64.704C158.559 64.4935 158.536 64.2815 158.472 64.08C158.332 63.52 158.072 62.672 157.872 61.984C157.852 61.9077 157.817 61.8364 157.768 61.7744C157.719 61.7123 157.658 61.661 157.589 61.6235C157.519 61.586 157.443 61.5631 157.365 61.5563C157.286 61.5495 157.207 61.559 157.132 61.584V61.6Z" fill="#FFBE9D"/>
<path d="M156.292 62.212C156.161 62.2552 156.053 62.3474 155.99 62.4691C155.926 62.5908 155.912 62.7325 155.952 62.864C156.104 63.384 156.352 64.208 156.544 64.708C156.598 64.8713 156.682 65.0232 156.792 65.156C156.848 65.2223 156.921 65.2721 157.004 65.3003C157.086 65.3285 157.174 65.3339 157.26 65.316C157.344 65.2845 157.418 65.2306 157.474 65.1601C157.529 65.0896 157.565 65.0052 157.576 64.916C157.588 64.7336 157.566 64.5505 157.512 64.376C157.384 63.888 157.156 63.176 156.96 62.56C156.915 62.4274 156.82 62.3177 156.695 62.2549C156.57 62.192 156.425 62.1809 156.292 62.224V62.212Z" fill="#FFBE9D"/>
<path d="M155.232 62.372C155.101 62.4152 154.993 62.5072 154.929 62.6288C154.865 62.7503 154.85 62.8919 154.888 63.024C155.044 63.548 155.288 64.376 155.488 64.876C155.539 65.0432 155.623 65.1983 155.736 65.332C155.79 65.4087 155.867 65.4662 155.956 65.4961C156.045 65.526 156.141 65.5267 156.23 65.4981C156.319 65.4695 156.397 65.4132 156.452 65.3372C156.507 65.2613 156.537 65.1698 156.536 65.076C156.549 64.8933 156.526 64.7097 156.468 64.536C156.34 64.044 156.112 63.308 155.916 62.708C155.894 62.6416 155.86 62.5801 155.814 62.5272C155.768 62.4742 155.713 62.4309 155.65 62.3996C155.588 62.3683 155.519 62.3498 155.45 62.3451C155.38 62.3403 155.31 62.3495 155.244 62.372H155.232Z" fill="#FFBE9D"/>
<path d="M158.516 63.972C158.295 63.6456 158.134 63.2827 158.04 62.9C157.88 62.5401 157.789 62.1534 157.772 61.76C157.995 62.0849 158.157 62.4484 158.248 62.832C158.41 63.1912 158.501 63.5783 158.516 63.972Z" fill="#EB996E"/>
<path d="M157.556 64.8C157.322 64.4196 157.152 64.0034 157.052 63.568C156.882 63.1553 156.782 62.7174 156.756 62.272C156.99 62.6524 157.16 63.0686 157.26 63.504C157.431 63.9161 157.531 64.3544 157.556 64.8Z" fill="#EB996E"/>
<path d="M156.612 64.864C156.363 64.5499 156.186 64.1855 156.092 63.796C155.928 63.4304 155.85 63.0323 155.864 62.632C156.06 62.975 156.207 63.3439 156.3 63.728C156.461 64.0887 156.566 64.4717 156.612 64.864Z" fill="#EB996E"/>
<path d="M189.964 50.316C188.44 47.74 185.688 46.068 182.8 45.272C181.6 44.94 180.76 45.032 179.508 45.172C178.26 45.2774 177.09 45.82 176.204 46.704C175.117 47.7424 174.311 49.0385 173.86 50.472C173.417 51.9446 173.112 53.4551 172.948 54.984C172.786 56.5222 173.051 58.0752 173.716 59.472L177.468 60.728C179.588 61.128 181.736 61.528 183.868 61.356C186 61.184 188.2 60.38 189.588 58.728C191.532 56.44 191.488 52.892 189.964 50.316Z" fill="#263238"/>
<path d="M192 61.6C192.03 61.1573 191.958 60.7136 191.789 60.3031C191.621 59.8926 191.36 59.5262 191.028 59.232C190.687 58.947 190.264 58.778 189.82 58.7492C189.377 58.7204 188.935 58.8335 188.56 59.072L187.844 59.7C187.341 59.8464 186.897 60.1458 186.572 60.5566C186.247 60.9674 186.059 61.4691 186.032 61.992C186.024 62.5162 186.166 63.0317 186.441 63.478C186.716 63.9244 187.112 64.2831 187.584 64.512C188.061 64.7283 188.586 64.8183 189.108 64.7735C189.629 64.7287 190.131 64.5505 190.564 64.256C190.991 63.9529 191.342 63.5558 191.591 63.0953C191.84 62.6347 191.98 62.1232 192 61.6Z" fill="#263238"/>
<path d="M190.832 64.096C191.016 63.8915 191.129 63.6336 191.156 63.36C191.132 62.6916 190.918 62.0438 190.54 61.492C190.186 60.9195 189.725 60.4199 189.184 60.02C188.784 59.708 188.472 59.572 188.488 59.54C188.767 59.6114 189.029 59.7364 189.26 59.908C189.845 60.2893 190.339 60.7962 190.704 61.392C190.905 61.719 191.065 62.0696 191.18 62.436C191.288 62.7368 191.326 63.0582 191.292 63.376C191.264 63.5934 191.171 63.7972 191.024 63.96C190.92 64.072 190.84 64.104 190.832 64.096Z" fill="#455A64"/>
<path d="M188.8 64.952C189 64.1088 189.073 63.2406 189.016 62.376C188.896 61.5196 188.643 60.6871 188.268 59.908C188.45 60.0943 188.594 60.3144 188.692 60.556C189.249 61.6962 189.39 62.9947 189.092 64.228C189.04 64.4853 188.941 64.7307 188.8 64.952Z" fill="#455A64"/>
<path d="M176.196 68.772C176.428 67.424 176.944 64.532 176.944 64.54C176.944 64.548 173.852 63.712 173.6 59.552C173.472 57.484 173.9 54.152 174.336 51.436C174.736 48.992 177.32 45.976 180.336 46.428L181.7 46.476L186.528 49.304C186.886 49.3759 187.204 49.581 187.417 49.878C187.63 50.1749 187.722 50.5415 187.676 50.904L185.032 68.38L177.548 83.024L175.856 72.624L176.196 68.772Z" fill="#FFBE9D"/>
<path d="M175.728 54.42C175.714 54.5564 175.754 54.6928 175.839 54.8003C175.924 54.9078 176.048 54.978 176.184 54.996C176.25 55.008 176.318 55.0066 176.384 54.9918C176.449 54.9771 176.512 54.9493 176.566 54.9102C176.621 54.871 176.668 54.8213 176.703 54.7639C176.738 54.7065 176.762 54.6426 176.772 54.576C176.785 54.4391 176.746 54.3023 176.661 54.1941C176.576 54.086 176.452 54.015 176.316 53.996C176.249 53.984 176.181 53.9856 176.115 54.0006C176.049 54.0156 175.987 54.0437 175.932 54.0832C175.877 54.1228 175.831 54.173 175.795 54.2309C175.76 54.2887 175.737 54.3531 175.728 54.42Z" fill="#263238"/>
<path d="M175.104 53.096C175.164 53.172 175.592 52.916 176.156 52.972C176.72 53.028 177.108 53.352 177.176 53.288C177.244 53.224 177.156 53.128 176.988 52.98C176.762 52.7884 176.483 52.6711 176.188 52.644C175.894 52.614 175.599 52.6785 175.344 52.828C175.148 52.944 175.076 53.064 175.104 53.096Z" fill="#263238"/>
<path d="M178 57.884C177.711 57.7611 177.407 57.6751 177.096 57.628C176.952 57.6 176.82 57.56 176.804 57.456C176.809 57.3116 176.858 57.1723 176.944 57.056C177.112 56.72 177.288 56.364 177.476 55.996C178.22 54.488 178.776 53.24 178.712 53.196C178.156 54.0493 177.669 54.9455 177.256 55.876L176.74 56.94C176.631 57.1053 176.585 57.3036 176.608 57.5C176.624 57.5533 176.653 57.6022 176.691 57.6431C176.729 57.6839 176.776 57.7157 176.828 57.736C176.905 57.7643 176.986 57.7831 177.068 57.792C177.373 57.8628 177.687 57.8938 178 57.884Z" fill="#263238"/>
<path d="M176.944 64.54C178.872 64.7534 180.822 64.428 182.576 63.6C182.576 63.6 180.84 66.296 176.772 65.516L176.944 64.54Z" fill="#EB996E"/>
<path d="M175.548 51.1C175.636 51.24 176.04 51.144 176.508 51.184C176.976 51.224 177.364 51.352 177.468 51.228C177.516 51.168 177.468 51.032 177.304 50.892C177.085 50.7246 176.821 50.6258 176.545 50.608C176.27 50.5902 175.995 50.6542 175.756 50.792C175.6 50.908 175.512 51.036 175.548 51.1Z" fill="#263238"/>
<path d="M182.196 54.832C182.179 54.9687 182.109 55.0932 182.001 55.1792C181.894 55.2651 181.757 55.3056 181.62 55.292C181.553 55.2879 181.487 55.2706 181.427 55.241C181.366 55.2114 181.313 55.1701 181.268 55.1195C181.224 55.0688 181.19 55.01 181.169 54.9462C181.148 54.8824 181.139 54.8151 181.144 54.748C181.16 54.6109 181.23 54.4857 181.337 54.3996C181.445 54.3135 181.583 54.2734 181.72 54.288C181.787 54.2921 181.853 54.3094 181.913 54.339C181.973 54.3686 182.027 54.41 182.072 54.4606C182.116 54.5112 182.15 54.5701 182.171 54.6338C182.192 54.6976 182.201 54.7649 182.196 54.832Z" fill="#263238"/>
<path d="M182.592 53.568C182.516 53.628 182.16 53.28 181.596 53.204C181.032 53.128 180.584 53.356 180.532 53.28C180.48 53.204 180.588 53.132 180.784 53.024C181.052 52.8876 181.355 52.8373 181.652 52.88C181.945 52.9194 182.217 53.0495 182.432 53.252C182.584 53.408 182.628 53.54 182.592 53.568Z" fill="#263238"/>
<path d="M182.508 51.64C182.392 51.752 182.02 51.568 181.556 51.5C181.092 51.432 180.68 51.468 180.608 51.324C180.576 51.252 180.656 51.132 180.844 51.036C181.093 50.9171 181.373 50.8807 181.644 50.932C181.918 50.9719 182.172 51.0964 182.372 51.288C182.52 51.444 182.56 51.6 182.508 51.64Z" fill="#263238"/>
<path d="M186.8 56.632L186 57.252C183.404 53.88 178.576 45.692 178.84 46.176C180.299 45.8718 181.812 45.9364 183.24 46.364C185.44 47.096 189.556 48.88 189.084 51.536C188.612 54.192 186.8 56.632 186.8 56.632Z" fill="#263238"/>
<path d="M188.496 59.244C188.508 59.0269 188.532 58.8105 188.568 58.596C188.63 58.0101 188.641 57.4198 188.6 56.832C188.436 54.8889 187.802 53.0148 186.752 51.372C185.684 49.7419 184.374 48.2839 182.868 47.048C182.292 46.568 181.816 46.196 181.48 45.94C181.303 45.8166 181.133 45.6831 180.972 45.54C180.972 45.54 181.028 45.54 181.12 45.62C181.212 45.7 181.352 45.768 181.52 45.888C181.868 46.124 182.36 46.48 182.948 46.952C184.498 48.1668 185.837 49.6291 186.912 51.28C187.98 52.9462 188.606 54.8569 188.732 56.832C188.763 57.4282 188.732 58.0261 188.64 58.616C188.612 58.824 188.564 58.98 188.544 59.092C188.536 59.1449 188.52 59.1962 188.496 59.244Z" fill="#455A64"/>
<path d="M182.744 45.632C182.797 45.6527 182.848 45.6796 182.896 45.712C182.996 45.768 183.136 45.852 183.316 45.968C183.672 46.2 184.184 46.548 184.788 47.02C185.492 47.5744 186.164 48.1687 186.8 48.8C187.607 49.5492 188.321 50.3941 188.924 51.316C189.23 51.8039 189.468 52.3315 189.632 52.884C189.78 53.4044 189.855 53.9429 189.856 54.484C189.851 55.3853 189.716 56.2812 189.456 57.144C189.236 57.88 189.012 58.456 188.852 58.852C188.772 59.048 188.704 59.2 188.66 59.304C188.637 59.3569 188.611 59.4077 188.58 59.456C188.636 59.2319 188.709 59.0126 188.8 58.8C188.936 58.4 189.14 57.816 189.34 57.084C189.583 56.2318 189.706 55.3501 189.708 54.464C189.699 53.9442 189.622 53.4279 189.48 52.928C189.318 52.3926 189.086 51.8813 188.788 51.408C188.191 50.5011 187.493 49.6651 186.708 48.916C186.072 48.2879 185.404 47.6925 184.708 47.132C184.12 46.652 183.62 46.288 183.276 46.04C183.089 45.9171 182.911 45.7807 182.744 45.632Z" fill="#455A64"/>
<path d="M186.86 56.708C186.744 56.5849 186.641 56.451 186.552 56.308L185.752 55.164C185.1 54.196 184.208 52.848 183.236 51.352C182.264 49.856 181.388 48.5 180.764 47.508L180.032 46.332C179.937 46.1909 179.854 46.0424 179.784 45.888C179.9 46.0103 180.003 46.1443 180.092 46.288L180.892 47.432C181.544 48.4 182.436 49.748 183.412 51.244C184.388 52.74 185.26 54.1 185.884 55.088L186.616 56.268C186.712 56.406 186.794 56.5534 186.86 56.708Z" fill="#455A64"/>
<path d="M186.036 57.712C186.068 57.408 186.492 56.72 186.796 56.704C187.596 56.656 189.06 56.86 188.872 58.908C188.62 61.708 185.868 60.872 185.868 60.792C185.868 60.712 185.932 58.764 186.036 57.712Z" fill="#FFBE9D"/>
<path d="M186.64 59.74C186.64 59.74 186.684 59.78 186.764 59.824C186.819 59.8544 186.88 59.8735 186.942 59.8804C187.005 59.8873 187.068 59.8817 187.128 59.864C187.319 59.7669 187.481 59.6203 187.596 59.4395C187.712 59.2588 187.777 59.0503 187.784 58.836C187.811 58.596 187.785 58.3529 187.708 58.124C187.689 58.0353 187.65 57.9525 187.592 57.8828C187.534 57.8131 187.46 57.7586 187.376 57.724C187.321 57.7054 187.262 57.706 187.207 57.7256C187.153 57.7452 187.106 57.7827 187.076 57.832C187.032 57.908 187.044 57.964 187.032 57.968C187.02 57.972 186.976 57.916 187.008 57.804C187.028 57.7363 187.072 57.6781 187.132 57.64C187.172 57.614 187.218 57.5963 187.265 57.5881C187.313 57.5798 187.361 57.5812 187.408 57.592C187.522 57.6242 187.625 57.6853 187.708 57.7695C187.79 57.8537 187.85 57.9579 187.88 58.072C187.98 58.3261 188.013 58.6015 187.976 58.872C187.908 59.436 187.576 59.936 187.176 60.016C187.099 60.0315 187.019 60.0295 186.943 60.0101C186.867 59.9908 186.796 59.9545 186.736 59.904C186.64 59.808 186.632 59.744 186.64 59.74Z" fill="#EB996E"/>
<path d="M192.604 161.232C192.548 161.672 191.464 173.972 191.464 173.972H185.828L184.84 161.284L192.604 161.232Z" fill="#FFBE9D"/>
<path d="M185.812 172.14C185.812 172.14 189.772 174.94 191.684 172.52L192.188 173.696L194.436 182.096C194.513 182.359 194.491 182.641 194.375 182.89C194.258 183.138 194.055 183.335 193.804 183.444C193.611 183.521 193.4 183.541 193.196 183.502C192.992 183.463 192.803 183.366 192.652 183.224C191.024 181.672 185.052 175.948 185.124 175.172L185.144 173.112C185.147 172.903 185.212 172.699 185.331 172.527C185.45 172.355 185.617 172.221 185.812 172.144V172.14Z" fill="#15CF92"/>
<path d="M193.6 183.496L185.12 174.452V174.9C185.11 175.085 185.141 175.27 185.21 175.442C185.279 175.614 185.385 175.769 185.52 175.896C186.208 176.82 188.108 178.892 192.616 183.22C192.745 183.344 192.903 183.434 193.075 183.482C193.248 183.53 193.429 183.535 193.604 183.496H193.6Z" fill="#263238"/>
<path d="M186.364 173.108C186.495 173.204 186.586 173.344 186.62 173.503C186.654 173.662 186.628 173.827 186.548 173.968C186.457 174.103 186.318 174.198 186.16 174.233C186.002 174.269 185.836 174.243 185.696 174.16C185.557 174.058 185.462 173.908 185.427 173.74C185.392 173.572 185.421 173.396 185.508 173.248C185.616 173.118 185.771 173.035 185.94 173.016C186.108 172.997 186.278 173.045 186.412 173.148" fill="white"/>
<path d="M191.164 178.864C191.418 178.53 191.733 178.248 192.092 178.032C192.474 177.88 192.881 177.799 193.292 177.792C193.292 177.768 193.168 177.684 192.92 177.652C192.593 177.615 192.262 177.675 191.968 177.824C191.671 177.967 191.423 178.196 191.256 178.48C191.152 178.696 191.136 178.856 191.164 178.864Z" fill="#263238"/>
<path d="M191.924 180.284C192.228 180.11 192.542 179.955 192.864 179.82C193.206 179.755 193.552 179.709 193.9 179.684C193.932 179.628 193.42 179.408 192.796 179.6C192.172 179.792 191.868 180.256 191.924 180.284Z" fill="#263238"/>
<path d="M189.748 177.044C190.195 176.744 190.663 176.476 191.148 176.244C191.663 176.079 192.19 175.954 192.724 175.872C192.724 175.812 191.948 175.668 191.06 176.028C190.516 176.2 190.051 176.56 189.748 177.044Z" fill="#263238"/>
<path d="M189.556 174.488C189.588 174.552 190.172 174.304 190.936 174.276C191.7 174.248 192.304 174.424 192.328 174.36C191.897 174.128 191.412 174.017 190.924 174.04C190.436 174.063 189.963 174.217 189.556 174.488Z" fill="#263238"/>
<path d="M191.372 174.252C191.38 174.116 191.359 173.98 191.312 173.852C191.206 173.498 191.032 173.167 190.8 172.88C190.649 172.653 190.426 172.483 190.168 172.396C190.08 172.375 189.989 172.382 189.905 172.415C189.821 172.447 189.75 172.505 189.7 172.58C189.614 172.733 189.587 172.912 189.624 173.084C189.714 173.433 189.923 173.739 190.215 173.95C190.508 174.16 190.865 174.261 191.224 174.236C191.576 174.206 191.912 174.072 192.188 173.851C192.464 173.631 192.669 173.333 192.776 172.996C192.802 172.911 192.81 172.821 192.798 172.733C192.786 172.644 192.756 172.559 192.708 172.484C192.656 172.41 192.58 172.355 192.492 172.33C192.405 172.304 192.312 172.309 192.228 172.344C191.981 172.449 191.766 172.615 191.604 172.828C191.364 173.108 191.175 173.427 191.044 173.772C190.986 173.897 190.954 174.034 190.952 174.172C191.149 173.728 191.41 173.315 191.728 172.948C191.877 172.772 192.066 172.635 192.28 172.548C192.326 172.53 192.377 172.528 192.425 172.542C192.472 172.555 192.514 172.584 192.544 172.624C192.573 172.675 192.59 172.733 192.594 172.791C192.598 172.85 192.589 172.909 192.568 172.964C192.462 173.249 192.277 173.497 192.034 173.681C191.792 173.864 191.503 173.975 191.2 174C190.897 174.018 190.598 173.932 190.35 173.758C190.103 173.584 189.921 173.331 189.836 173.04C189.807 172.922 189.821 172.797 189.876 172.688C189.902 172.645 189.94 172.612 189.986 172.592C190.032 172.573 190.083 172.569 190.132 172.58C190.348 172.656 190.536 172.795 190.672 172.98C190.978 173.36 191.215 173.79 191.372 174.252Z" fill="#263238"/>
<path d="M161.656 157.228L162.628 172.932L169.452 172.884L170.604 156.568L161.656 157.228Z" fill="#FFBE9D"/>
<path d="M162.504 171.036V171.492C162.504 171.492 154.8 174.552 154.704 176H169.984L169.768 170.916C168.636 171.457 167.402 171.747 166.149 171.768C164.895 171.788 163.652 171.539 162.504 171.036Z" fill="#15CF92"/>
<path d="M168.224 172.536C168.371 172.581 168.496 172.678 168.576 172.809C168.656 172.941 168.684 173.097 168.656 173.248C168.617 173.396 168.523 173.524 168.392 173.605C168.262 173.686 168.106 173.715 167.956 173.684C167.8 173.637 167.667 173.533 167.583 173.393C167.498 173.254 167.469 173.088 167.5 172.928C167.557 172.777 167.669 172.654 167.815 172.585C167.96 172.516 168.127 172.505 168.28 172.556" fill="white"/>
<path d="M170 176L169.948 174.78L155.324 175.244C155.324 175.244 154.644 175.54 154.72 176.016L170 176Z" fill="#263238"/>
<path d="M162.444 171.536C162.444 171.608 162.82 171.64 163.188 171.88C163.556 172.12 163.752 172.436 163.82 172.404C163.888 172.372 163.776 171.944 163.328 171.664C162.88 171.384 162.428 171.464 162.444 171.536Z" fill="#263238"/>
<path d="M160.844 172.2C160.844 172.272 161.148 172.396 161.404 172.712C161.66 173.028 161.732 173.36 161.804 173.36C161.876 173.36 161.928 172.932 161.604 172.56C161.28 172.188 160.844 172.128 160.844 172.2Z" fill="#263238"/>
<path d="M159.936 174.116C160.004 174.116 160.108 173.76 159.936 173.352C159.764 172.944 159.392 172.78 159.36 172.844C159.328 172.908 159.548 173.124 159.7 173.46C159.852 173.796 159.86 174.112 159.936 174.116Z" fill="#263238"/>
<path d="M170.604 108.628C170.4 109.216 162.308 136.628 162.308 136.628L160.916 169.16L170.988 169.74L174.588 137.26L183.788 116.944L179.744 100.416H171.52L170.604 108.628Z" fill="#263238"/>
<path d="M177.772 100.424C177.916 100.824 183.08 119.424 183.08 119.424L183.796 147.16V170.108H192.976L197.252 119.5C197.252 119.5 198.008 110.3 196.716 107.208C195.424 104.116 190.192 98.684 190.192 98.684L177.772 100.424Z" fill="#263238"/>
<path d="M178.512 102.328C178.598 102.538 178.667 102.755 178.72 102.976C178.852 103.428 179.028 104.028 179.236 104.752C179.7 106.284 180.316 108.352 181 110.604C181.684 112.856 182.232 115.004 182.552 116.52C182.72 117.288 182.828 117.912 182.892 118.344C182.937 118.567 182.963 118.793 182.968 119.02C182.9 118.804 182.848 118.584 182.812 118.36C182.724 117.932 182.592 117.312 182.412 116.556C182.056 115.032 181.48 112.956 180.812 110.664C180.144 108.372 179.512 106.304 179.108 104.792C178.904 104.036 178.748 103.424 178.652 102.996C178.586 102.778 178.539 102.554 178.512 102.328Z" fill="#455A64"/>
<path d="M181.68 102.328C181.453 102.401 181.252 102.54 181.104 102.728C181.033 102.829 180.988 102.947 180.974 103.07C180.96 103.193 180.977 103.317 181.024 103.432C181.08 103.57 181.173 103.691 181.293 103.779C181.413 103.867 181.555 103.92 181.704 103.932C181.853 103.934 182 103.894 182.128 103.817C182.256 103.74 182.36 103.629 182.428 103.496C182.487 103.387 182.517 103.266 182.517 103.142C182.517 103.018 182.487 102.897 182.428 102.788C182.3 102.583 182.113 102.421 181.892 102.324C181.892 102.324 181.972 102.304 182.104 102.348C182.291 102.417 182.448 102.546 182.552 102.716C182.637 102.842 182.687 102.988 182.698 103.14C182.708 103.292 182.679 103.443 182.612 103.58C182.535 103.753 182.407 103.899 182.246 103.999C182.084 104.099 181.896 104.148 181.707 104.139C181.517 104.13 181.335 104.065 181.183 103.951C181.031 103.837 180.917 103.68 180.856 103.5C180.804 103.357 180.789 103.204 180.813 103.054C180.838 102.904 180.901 102.762 180.996 102.644C181.117 102.485 181.287 102.371 181.48 102.32C181.6 102.3 181.68 102.316 181.68 102.328Z" fill="#455A64"/>
<path d="M189.828 115.688C189.833 115.735 189.833 115.781 189.828 115.828C189.828 115.932 189.828 116.064 189.828 116.228C189.828 116.604 189.828 117.132 189.828 117.804C189.828 119.176 189.828 121.156 189.784 123.604C189.712 128.5 189.492 135.256 189.204 142.72C188.916 150.184 188.676 156.944 188.564 161.836C188.508 164.284 188.472 166.264 188.452 167.632C188.452 168.304 188.452 168.832 188.428 169.208C188.428 169.376 188.428 169.509 188.428 169.608C188.446 169.611 188.462 169.621 188.473 169.635C188.484 169.649 188.489 169.667 188.487 169.685C188.486 169.703 188.478 169.72 188.464 169.732C188.451 169.744 188.434 169.751 188.416 169.751C188.398 169.751 188.38 169.744 188.367 169.732C188.354 169.72 188.346 169.703 188.344 169.685C188.342 169.667 188.348 169.649 188.359 169.635C188.37 169.621 188.386 169.611 188.404 169.608C188.404 169.504 188.404 169.368 188.404 169.208C188.404 168.832 188.404 168.304 188.404 167.632C188.404 166.26 188.404 164.28 188.448 161.832C188.524 156.936 188.74 150.176 189.028 142.712C189.316 135.248 189.556 128.492 189.668 123.6C189.724 121.152 189.764 119.172 189.78 117.804C189.78 117.132 189.8 116.604 189.804 116.228C189.804 116.056 189.804 115.924 189.804 115.828C189.806 115.78 189.814 115.733 189.828 115.688Z" fill="#455A64"/>
<path d="M175.664 112.348C175.654 112.396 175.639 112.443 175.62 112.488L175.464 112.888C175.316 113.26 175.108 113.788 174.844 114.464C174.296 115.84 173.508 117.812 172.532 120.244C171.556 122.676 170.444 125.612 169.38 128.916C168.165 132.478 167.314 136.154 166.84 139.888C166.628 141.888 166.536 143.84 166.416 145.724C166.296 147.608 166.216 149.432 166.12 151.168C165.94 154.636 165.78 157.76 165.644 160.392C165.508 163.024 165.364 165.14 165.244 166.604C165.184 167.328 165.14 167.892 165.108 168.292C165.088 168.476 165.076 168.62 165.064 168.728C165.061 168.779 165.054 168.83 165.044 168.88C165.039 168.829 165.039 168.779 165.044 168.728C165.044 168.62 165.044 168.472 165.064 168.288C165.088 167.888 165.12 167.324 165.164 166.6C165.248 165.132 165.36 163 165.484 160.384C165.608 157.768 165.756 154.628 165.916 151.16C166.008 149.424 166.1 147.6 166.2 145.712C166.3 143.824 166.408 141.868 166.62 139.868C167.103 136.123 167.967 132.437 169.2 128.868C170.276 125.56 171.424 122.644 172.4 120.204C173.376 117.764 174.208 115.804 174.772 114.448C175.052 113.776 175.272 113.248 175.428 112.884L175.604 112.484C175.619 112.437 175.639 112.391 175.664 112.348Z" fill="#455A64"/>
<path d="M189.512 67.68C189.512 67.68 194.972 68.7 196.172 69.7C197.372 70.7 208.308 84.964 208.536 87.844C208.764 90.724 207.432 91.78 206.676 92.464C205.92 93.148 192.848 102 192.848 102L188.828 95.332L200.124 88.584L194.672 79.26L189.512 67.68Z" fill="#15CF92"/>
<path d="M203.772 86.048C203.008 86.1631 202.272 86.418 201.6 86.8C200.965 87.239 200.415 87.7892 199.976 88.424C200.027 88.1933 200.129 87.9772 200.276 87.792C200.595 87.3217 201.009 86.9232 201.491 86.6222C201.974 86.3212 202.513 86.1242 203.076 86.044C203.305 85.9916 203.543 85.993 203.772 86.048Z" fill="#15CF92"/>
<path d="M176.28 68.372L177.728 81.508L185.116 66.708L189.88 71.548C189.88 71.548 192.804 88.848 192.848 88.972C192.892 89.096 190.848 98.868 190.848 98.868L177.308 101.488L173.176 100.436L172.524 85.048L172.236 73.264L176.28 68.372Z" fill="white"/>
<path d="M174.524 68.932L171.008 69.732C170.538 69.8406 170.101 70.0616 169.736 70.376C166.736 72.944 160.248 78.376 160.248 78.376L161.448 68.736L155.2 68.156C155.2 68.156 153.328 80.308 153.52 83.504C153.748 87.216 157.076 88.128 161.92 86.132C164.913 84.9306 167.811 83.5025 170.588 81.86L174.524 68.932Z" fill="#15CF92"/>
<path d="M194.132 79.312L193.488 90.832L194.136 93.072C194.136 93.072 200.2 104.52 201.2 112.1L193.696 113.3C193.696 113.3 191.648 103.52 190.208 98.672C188.768 93.824 184.508 91.784 183.068 86.8C182.201 83.9526 181.892 80.9644 182.16 78C182.16 77.696 185.116 66.704 185.116 66.704L185.644 64.408L188.3 66.932L195.12 69.2L194.132 79.312Z" fill="#15CF92"/>
<g opacity="0.3">
<path d="M197.708 100.736C196.467 101.694 195.17 102.577 193.824 103.38C193.744 103.42 193.64 103.464 193.524 103.508C193.254 103.607 192.957 103.606 192.687 103.505C192.418 103.404 192.194 103.209 192.056 102.956C191.896 102.664 191.732 102.356 191.624 102.124C191.348 101.528 191.048 100.812 190.78 100.192L191.624 99.988L192.848 102.016L196.376 99.616L197.048 99.156L197.708 100.736Z" fill="black"/>
</g>
<path d="M176.344 67.076L174.704 68.792L170.772 70.172C170.772 70.172 169.812 81.772 170.332 84.244C170.836 86.62 171.796 89.508 171.876 92.92C171.956 96.332 168.06 114.364 168.06 114.364L172.772 116.152C172.772 116.152 175.172 95.276 174.704 90.724C174.236 86.172 175.452 76.996 175.452 76.996L176.344 67.076Z" fill="#15CF92"/>
<path d="M185.264 89.2C185.2 89.143 185.143 89.08 185.092 89.012C184.939 88.8184 184.805 88.6108 184.692 88.392C184.298 87.5726 184.09 86.6769 184.08 85.768C184.065 84.4293 184.158 83.0916 184.36 81.768C184.578 80.1466 184.911 78.5426 185.356 76.968C186.11 74.2608 187.184 71.6531 188.556 69.2L188.62 69.316L186.952 69.264H186.832L186.904 69.168L188 67.696L188.296 67.296C188.327 67.2498 188.365 67.2081 188.408 67.172C188.386 67.2234 188.358 67.2718 188.324 67.316L188.052 67.716L187.004 69.224L186.956 69.128L188.624 69.148H188.752L188.688 69.26C187.356 71.718 186.301 74.3167 185.544 77.008C185.104 78.5722 184.767 80.1636 184.536 81.772C184.332 83.0823 184.225 84.4059 184.216 85.732C184.214 86.6236 184.397 87.506 184.752 88.324C184.906 88.6251 185.077 88.9176 185.264 89.2Z" fill="#263238"/>
<path d="M189.88 78.564C189.256 78.7739 188.606 78.8977 187.948 78.932C187.297 79.0308 186.637 79.0389 185.984 78.956C186.626 78.8338 187.275 78.7562 187.928 78.724C188.574 78.6224 189.226 78.5689 189.88 78.564Z" fill="#263238"/>
<path d="M194.664 75.892C194.653 76.0888 194.625 76.2842 194.58 76.476C194.528 76.852 194.46 77.396 194.396 78.076C194.268 79.428 194.14 81.296 193.996 83.36L193.676 88.652C193.628 89.328 193.588 89.876 193.552 90.252C193.545 90.4489 193.518 90.6446 193.472 90.836C193.456 90.6403 193.456 90.4437 193.472 90.248C193.472 89.828 193.504 89.288 193.528 88.648C193.58 87.292 193.664 85.42 193.788 83.352C193.912 81.284 194.068 79.416 194.236 78.064C194.316 77.392 194.408 76.864 194.484 76.464C194.525 76.268 194.585 76.0764 194.664 75.892Z" fill="#263238"/>
<path d="M203.396 88.968C203.376 89.028 202.64 88.792 201.696 88.724C200.752 88.656 199.992 88.776 199.98 88.724C200.533 88.5187 201.127 88.4514 201.712 88.528C202.301 88.5371 202.878 88.688 203.396 88.968Z" fill="#263238"/>
<path d="M160.288 78.152C160.168 78.6709 159.983 79.1724 159.736 79.644C159.552 80.1438 159.303 80.6172 158.996 81.052C159.113 80.5324 159.298 80.0306 159.548 79.56C159.734 79.0612 159.982 78.5881 160.288 78.152Z" fill="#263238"/>
<path d="M170.096 74.308C170.152 74.308 170.244 76.572 170.296 79.368C170.348 82.164 170.348 84.432 170.296 84.432C170.244 84.432 170.148 82.168 170.092 79.372C170.036 76.576 170.04 74.312 170.096 74.308Z" fill="#263238"/>
<path d="M174.76 83.82C174.724 83.6275 174.706 83.4319 174.708 83.236C174.708 82.836 174.676 82.284 174.652 81.636C174.612 80.288 174.568 78.436 174.536 76.372C174.504 74.308 174.488 72.452 174.484 71.104C174.484 70.46 174.484 69.924 174.484 69.504C174.476 69.3088 174.487 69.1132 174.516 68.92C174.552 69.1125 174.57 69.3081 174.568 69.504C174.568 69.904 174.6 70.456 174.624 71.104C174.664 72.452 174.704 74.304 174.736 76.368C174.768 78.432 174.788 80.284 174.792 81.632C174.792 82.276 174.792 82.832 174.792 83.232C174.797 83.4285 174.787 83.6252 174.76 83.82Z" fill="#263238"/>
<path d="M204.372 94.12C204.305 94.1821 204.232 94.2383 204.156 94.288L203.516 94.748L201.116 96.432L192.908 102.1L192.82 102.164L192.764 102.072L190.964 99.088L188.748 95.4L188.696 95.312L188.78 95.26L196.884 90.46L199.26 89.076L199.9 88.712C199.972 88.6668 200.049 88.628 200.128 88.596C200.062 88.6524 199.991 88.702 199.916 88.744L199.296 89.144L196.952 90.576L188.88 95.436L188.916 95.296C189.616 96.46 190.368 97.696 191.14 98.98L192.936 101.964L192.788 101.932C196.076 99.7 198.96 97.74 201.036 96.332L203.476 94.7L204.136 94.268C204.211 94.2127 204.289 94.1633 204.372 94.12Z" fill="#263238"/>
<g opacity="0.3">
<path d="M184.716 88.344C184.593 86.6236 184.757 84.8949 185.2 83.228C186.234 78.5519 187.934 74.0486 190.248 69.856C189.979 69.7077 189.671 69.6466 189.365 69.681C189.06 69.7154 188.773 69.8436 188.544 70.048C188.095 70.4684 187.748 70.9855 187.528 71.56C185.762 75.331 184.647 79.3732 184.228 83.516C184.125 84.3117 184.105 85.1161 184.168 85.916C184.248 86.756 184.248 87.636 184.768 88.296" fill="black"/>
</g>
<g opacity="0.3">
<path d="M170.084 75.148C168.84 77.308 169.004 79.908 170.192 82.1C170.192 79.7 170.192 77.6 170.048 75.18" fill="black"/>
</g>
<path d="M179.756 59.124C179.745 59.0529 179.719 58.985 179.68 58.9249C179.641 58.8649 179.589 58.814 179.528 58.776C179.444 58.7425 179.354 58.7288 179.264 58.736C178.743 58.7452 178.226 58.8191 177.724 58.956L177.696 59.036C177.72 59.2602 177.767 59.4813 177.836 59.696C177.903 59.9124 178.031 60.1051 178.204 60.252C178.372 60.3764 178.576 60.4435 178.786 60.4435C178.995 60.4435 179.199 60.3764 179.368 60.252C179.532 60.1196 179.656 59.9435 179.724 59.7439C179.793 59.5444 179.804 59.3295 179.756 59.124Z" fill="#EB996E"/>
<path d="M178.212 60.348C178.429 60.3673 178.647 60.3538 178.86 60.308C179.081 60.2407 179.271 60.0994 179.4 59.908C179.477 59.7958 179.529 59.6688 179.554 59.5352C179.579 59.4016 179.575 59.2642 179.544 59.132C179.52 59.0072 179.448 58.8967 179.344 58.824C179.227 58.7855 179.101 58.7855 178.984 58.824L178.264 58.96C178.042 59.0191 177.813 59.0447 177.584 59.036C177.788 58.9302 178.006 58.856 178.232 58.816L178.944 58.636C179.103 58.5786 179.277 58.5786 179.436 58.636C179.515 58.6834 179.583 58.7466 179.636 58.8217C179.689 58.8967 179.726 58.982 179.744 59.072C179.783 59.2329 179.787 59.4005 179.754 59.5629C179.722 59.7253 179.654 59.8786 179.556 60.012C179.392 60.2207 179.157 60.3628 178.896 60.412C178.784 60.4528 178.665 60.4682 178.547 60.4572C178.428 60.4461 178.314 60.4088 178.212 60.348Z" fill="#263238"/>
<path d="M186.94 60.748C186.883 60.5995 186.778 60.4743 186.642 60.3924C186.505 60.3105 186.346 60.2765 186.188 60.296C186.098 60.3062 186.012 60.3358 185.936 60.3828C185.859 60.4298 185.793 60.493 185.744 60.568C185.665 60.6984 185.63 60.8507 185.644 61.0024C185.657 61.1542 185.719 61.2977 185.82 61.412C185.926 61.5212 186.064 61.5925 186.215 61.6149C186.365 61.6373 186.519 61.6096 186.652 61.536C186.782 61.4563 186.881 61.3351 186.933 61.1921C186.985 61.0491 186.988 60.8926 186.94 60.748Z" fill="#FAFAFA"/>
<path d="M189.004 95.744L184.376 91.644L180.468 91.98C180.468 91.98 180.604 92.62 181.144 92.72C181.684 92.82 183.636 92.856 183.636 92.856L184.552 93.764L182.22 93.532L179.256 95.28C179.256 95.28 179.188 95.82 179.964 95.68C180.734 95.4925 181.488 95.2451 182.22 94.94L183.944 95.04L182.064 95.312L179.628 97.028C179.79 97.1964 179.995 97.3171 180.22 97.3771C180.446 97.437 180.684 97.4339 180.908 97.368C181.684 97.132 182.624 96.76 182.624 96.76L184.748 96.556L182.624 97.096L181.044 99.052C181.194 99.1563 181.372 99.2122 181.554 99.2122C181.736 99.2122 181.914 99.1563 182.064 99.052C182.377 98.8325 182.677 98.5961 182.964 98.344L185.32 98.24C185.32 98.24 187.924 100.128 188.828 100.332C189.732 100.536 191.628 99.984 191.628 99.984L189.004 95.744Z" fill="#FFBE9D"/>
<path d="M280.732 115.036H209.016V155.136H280.732V115.036Z" fill="#FAFAFA"/>
<path d="M280.732 155.136C280.732 155.136 280.732 154.888 280.732 154.416C280.732 153.944 280.732 153.24 280.732 152.324C280.732 150.484 280.732 147.78 280.732 144.304C280.732 137.364 280.708 127.348 280.688 115.036L280.768 115.116L209.056 115.14L209.16 115.036C209.16 129.216 209.16 142.78 209.16 155.136L209.064 155.04L260.664 155.088L275.464 155.112H279.416H280.436H280.784H280.448H279.436H275.508L260.708 155.14L209.064 155.188H208.964V155.088C208.964 142.732 208.964 129.168 208.964 114.988V114.884H209.072L280.784 114.908H280.864V114.988C280.864 127.32 280.832 137.352 280.82 144.308C280.82 147.772 280.82 150.472 280.82 152.308C280.82 153.22 280.82 153.908 280.82 154.388C280.82 154.868 280.732 155.136 280.732 155.136Z" fill="#263238"/>
<path d="M227.92 124.592H217.78V134.732H227.92V124.592Z" fill="#455A64"/>
<path d="M241.844 126C241.844 126.06 239.476 126.108 236.56 126.108C233.644 126.108 231.272 126.06 231.272 126C231.272 125.94 233.64 125.896 236.56 125.896C239.48 125.896 241.844 125.96 241.844 126Z" fill="#15CF92"/>
<path d="M275.6 129.664C275.6 129.72 265.672 129.768 253.432 129.768C241.192 129.768 231.264 129.72 231.264 129.664C231.264 129.608 241.188 129.56 253.432 129.56C265.676 129.56 275.6 129.6 275.6 129.664Z" fill="#263238"/>
<path d="M260.692 133.752C260.692 133.808 254.168 133.856 246.128 133.856C238.088 133.856 231.56 133.808 231.56 133.752C231.56 133.696 238.08 133.648 246.128 133.648C254.176 133.648 260.692 133.696 260.692 133.752Z" fill="#263238"/>
<path d="M270.116 140.424H221.128C218.532 140.424 216.428 142.528 216.428 145.124C216.428 147.72 218.532 149.824 221.128 149.824H270.116C272.712 149.824 274.816 147.72 274.816 145.124C274.816 142.528 272.712 140.424 270.116 140.424Z" fill="#15CF92"/>
<path d="M236.616 145.78H235.416L235.188 146.336H234.572L235.728 143.748H236.32L237.476 146.336H236.848L236.616 145.78ZM236.428 145.328L236.028 144.336L235.628 145.328H236.428Z" fill="white"/>
<path d="M240 144.688C240 145.264 239.568 145.624 238.876 145.624H238.356V146.336H237.756V143.748H238.876C239.556 143.748 240 144.104 240 144.688ZM239.396 144.688C239.396 144.404 239.208 144.236 238.844 144.236H238.356V145.136H238.844C239.2 145.136 239.384 144.968 239.384 144.688H239.396Z" fill="white"/>
<path d="M242.66 144.688C242.66 145.264 242.228 145.624 241.536 145.624H241.016V146.336H240.4V143.748H241.52C242.228 143.748 242.66 144.104 242.66 144.688ZM242.052 144.688C242.052 144.404 241.868 144.236 241.504 144.236H241.016V145.136H241.504C241.868 145.136 242.052 144.968 242.052 144.688Z" fill="white"/>
<path d="M243.088 143.748H243.684V145.848H244.984V146.336H243.088V143.748Z" fill="white"/>
<path d="M246.296 145.42V146.336H245.696V145.412L244.696 143.748H245.332L246.024 144.896L246.716 143.748H247.304L246.296 145.42Z" fill="white"/>
<path d="M250.976 143.748V146.336H250.484L249.2 144.764V146.336H248.608V143.748H249.104L250.4 145.32V143.748H250.976Z" fill="white"/>
<path d="M251.428 145.04C251.412 144.756 251.482 144.474 251.627 144.231C251.773 143.987 251.989 143.792 252.247 143.672C252.505 143.553 252.792 143.513 253.073 143.558C253.353 143.604 253.614 143.732 253.82 143.927C254.027 144.122 254.17 144.375 254.232 144.652C254.294 144.93 254.271 145.219 254.166 145.483C254.061 145.747 253.88 145.974 253.645 146.134C253.41 146.294 253.132 146.38 252.848 146.38C252.665 146.391 252.483 146.364 252.311 146.302C252.139 146.239 251.981 146.143 251.848 146.017C251.715 145.891 251.609 145.74 251.537 145.572C251.465 145.404 251.428 145.223 251.428 145.04ZM253.656 145.04C253.65 144.883 253.598 144.732 253.506 144.605C253.414 144.477 253.287 144.38 253.141 144.324C252.994 144.268 252.834 144.257 252.681 144.291C252.528 144.326 252.389 144.404 252.28 144.518C252.171 144.631 252.098 144.773 252.07 144.927C252.041 145.082 252.059 145.241 252.12 145.385C252.182 145.529 252.284 145.653 252.415 145.739C252.546 145.826 252.699 145.872 252.856 145.872C252.964 145.872 253.071 145.85 253.17 145.808C253.269 145.766 253.359 145.704 253.433 145.626C253.508 145.549 253.566 145.457 253.605 145.356C253.643 145.255 253.66 145.148 253.656 145.04Z" fill="white"/>
<path d="M258.544 143.748L257.696 146.336H257.052L256.484 144.584L255.896 146.336H255.256L254.4 143.748H255.02L255.608 145.568L256.216 143.748H256.772L257.364 145.58L257.964 143.748H258.544Z" fill="white"/>
<path d="M74.8604 87.172H21.7764V116.852H74.8604V87.172Z" fill="#FAFAFA"/>
<path d="M74.8602 116.856C74.8602 116.856 74.8602 116.672 74.8602 116.32C74.8602 115.968 74.8602 115.448 74.8602 114.768C74.8602 113.404 74.8602 111.404 74.8402 108.832C74.8402 103.692 74.8122 96.284 74.7962 87.172L74.8762 87.252L21.7962 87.276L21.9002 87.172C21.9002 97.668 21.9002 107.708 21.9002 116.856L21.8042 116.76L59.9722 116.804L70.9442 116.832H73.8722H74.6282H74.8882H74.6402H73.8922H70.9882L60.0402 116.856L21.8042 116.904H21.6802V116.808C21.6802 107.66 21.6802 97.608 21.6802 87.124V87.02H21.7882L74.8682 87.048H74.9482V87.124C74.9482 96.256 74.9162 103.684 74.9042 108.832C74.9042 111.396 74.9042 113.392 74.8842 114.752C74.8842 115.424 74.8842 115.952 74.8842 116.288C74.8842 116.624 74.8602 116.856 74.8602 116.856Z" fill="#263238"/>
<path d="M35.7682 94.248H28.2642V101.752H35.7682V94.248Z" fill="#455A64"/>
<path d="M46.076 95.304C44.7747 95.407 43.4689 95.4417 42.164 95.408C40.859 95.4417 39.5532 95.407 38.252 95.304C39.5531 95.1986 40.859 95.1639 42.164 95.2C43.4689 95.1639 44.7748 95.1986 46.076 95.304Z" fill="#15CF92"/>
<path d="M71.0642 98C71.0642 98.06 63.7202 98.104 54.6642 98.104C45.6082 98.104 38.2642 98.06 38.2642 98C38.2642 97.94 45.6082 97.896 54.6642 97.896C63.7202 97.896 71.0642 97.944 71.0642 98Z" fill="#263238"/>
<path d="M60.0244 101.028C60.0244 101.084 55.2004 101.132 49.2444 101.132C43.2884 101.132 38.4644 101.084 38.4644 101.028C38.4644 100.972 43.2884 100.924 49.2644 100.924C55.2404 100.924 60.0244 100.968 60.0244 101.028Z" fill="#263238"/>
<path d="M67.0002 105.964H30.7442C28.8222 105.964 27.2642 107.521 27.2642 109.442C27.2642 111.363 28.8222 112.92 30.7442 112.92H67.0002C68.9221 112.92 70.4802 111.363 70.4802 109.442C70.4802 107.521 68.9221 105.964 67.0002 105.964Z" fill="#15CF92"/>
<path d="M42.2084 109.932H41.3164L41.1444 110.332H40.6924L41.5444 108.412H42.0004L42.8604 110.332H42.3924L42.2084 109.932ZM42.0684 109.596L41.7644 108.86L41.4604 109.596H42.0684Z" fill="white"/>
<path d="M44.704 109.12C44.704 109.548 44.384 109.812 43.872 109.812H43.472V110.344H43.04V108.424H43.872C44.4 108.424 44.704 108.688 44.704 109.12ZM44.256 109.12C44.256 108.908 44.116 108.784 43.856 108.784H43.492V109.452H43.856C44.116 109.452 44.256 109.328 44.256 109.12Z" fill="white"/>
<path d="M46.6804 109.12C46.6804 109.548 46.3604 109.812 45.8484 109.812H45.4484V110.344H45.0044V108.424H45.8324C46.3604 108.424 46.6804 108.688 46.6804 109.12ZM46.2324 109.12C46.2324 108.908 46.0964 108.784 45.8324 108.784H45.4724V109.452H45.8324C46.0964 109.452 46.2324 109.328 46.2324 109.12Z" fill="white"/>
<path d="M46.9961 108.424H47.4401V110H48.4001V110.364H46.9961V108.424Z" fill="white"/>
<path d="M49.372 109.664V110.344H48.928V109.656L48.188 108.424H48.656L49.172 109.276L49.684 108.424H50.12L49.372 109.664Z" fill="white"/>
<path d="M52.8361 108.424V110.344H52.4721L51.5161 109.176V110.344H51.0801V108.424H51.4441L52.4001 109.6V108.436L52.8361 108.424Z" fill="white"/>
<path d="M53.1724 109.384C53.1612 109.175 53.213 108.967 53.3212 108.787C53.4293 108.608 53.5888 108.465 53.779 108.377C53.9693 108.289 54.1815 108.26 54.3884 108.294C54.5952 108.328 54.7871 108.423 54.9393 108.567C55.0916 108.711 55.1971 108.897 55.2423 109.102C55.2874 109.307 55.2702 109.52 55.1928 109.715C55.1154 109.91 54.9814 110.077 54.808 110.195C54.6347 110.313 54.43 110.376 54.2204 110.376C54.0855 110.384 53.9505 110.364 53.8236 110.317C53.6967 110.271 53.5806 110.199 53.4825 110.106C53.3843 110.013 53.3062 109.901 53.2529 109.777C53.1996 109.653 53.1722 109.519 53.1724 109.384ZM54.8204 109.384C54.818 109.266 54.7808 109.151 54.7135 109.054C54.6461 108.957 54.5516 108.882 54.4418 108.838C54.332 108.795 54.2118 108.785 54.0962 108.809C53.9806 108.834 53.8748 108.892 53.7921 108.976C53.7094 109.06 53.6534 109.167 53.6312 109.283C53.609 109.399 53.6216 109.519 53.6673 109.628C53.7131 109.737 53.7899 109.83 53.8883 109.896C53.9867 109.961 54.1022 109.996 54.2204 109.996C54.3007 109.998 54.3805 109.983 54.4548 109.953C54.5292 109.922 54.5966 109.877 54.6528 109.82C54.709 109.762 54.7529 109.694 54.7817 109.619C54.8105 109.544 54.8237 109.464 54.8204 109.384Z" fill="white"/>
<path d="M58.4402 108.424L57.8122 110.344H57.3362L56.9122 109.044L56.4762 110.344H56.0002L55.3682 108.424H55.8282L56.2602 109.772L56.7122 108.424H57.1122L57.5522 109.784L58.0002 108.424H58.4402Z" fill="white"/>
<path d="M268.048 35.32H209.808V67.884H268.048V35.32Z" fill="#FAFAFA"/>
<path d="M268.048 67.884C268.048 67.884 268.048 67.684 268.048 67.296C268.048 66.908 268.048 66.34 268.048 65.596C268.048 64.1 268.048 61.904 268.028 59.084C268.028 53.448 268.004 45.316 267.988 35.32L268.068 35.4L209.832 35.424L209.936 35.32C209.936 46.836 209.936 57.848 209.936 67.884L209.84 67.788L251.72 67.832L263.756 67.86H266.956H267.784H266.984H263.784L251.784 67.888L209.808 68H209.712V67.904C209.712 57.868 209.712 46.856 209.712 35.34V35.2H209.82L268.056 35.224H268.136V35.304C268.116 45.304 268.104 53.468 268.092 59.116C268.092 61.916 268.092 64.12 268.072 65.612C268.072 66.348 268.072 66.912 268.072 67.3C268.072 67.688 268.048 67.884 268.048 67.884Z" fill="#263238"/>
<path d="M225.156 43.08H216.924V51.312H225.156V43.08Z" fill="#455A64"/>
<path d="M236.468 44.24C236.468 44.296 234.544 44.344 232.176 44.344C229.808 44.344 227.884 44.296 227.884 44.24C230.744 44.096 233.609 44.096 236.468 44.24Z" fill="#15CF92"/>
<path d="M263.884 47.2C263.884 47.26 255.824 47.308 245.884 47.308C235.944 47.308 227.884 47.26 227.884 47.2C227.884 47.14 235.94 47.096 245.884 47.096C255.828 47.096 263.884 47.14 263.884 47.2Z" fill="#263238"/>
<path d="M251.772 50.52C251.772 50.576 246.476 50.624 239.944 50.624C233.412 50.624 228.116 50.576 228.116 50.52C228.116 50.464 233.412 50.416 239.944 50.416C246.476 50.416 251.772 50.46 251.772 50.52Z" fill="#263238"/>
<path d="M259.424 63.568H219.644C218.632 63.568 217.661 63.1659 216.946 62.4503C216.23 61.7347 215.828 60.7641 215.828 59.752C215.828 58.7399 216.23 57.7693 216.946 57.0537C217.661 56.338 218.632 55.936 219.644 55.936H259.424C260.436 55.936 261.407 56.338 262.122 57.0537C262.838 57.7693 263.24 58.7399 263.24 59.752C263.24 60.7641 262.838 61.7347 262.122 62.4503C261.407 63.1659 260.436 63.568 259.424 63.568Z" fill="#15CF92"/>
<path d="M232.22 60.288H231.244L231.06 60.736H230.56L231.496 58.636H231.976L232.916 60.736H232.4L232.22 60.288ZM232.068 59.916L231.736 59.116L231.4 59.916H232.068Z" fill="white"/>
<path d="M234.96 59.4C234.96 59.868 234.608 60.156 234.048 60.156H233.624V60.736H233.136V58.636H234.048C234.608 58.636 234.96 58.928 234.96 59.4ZM234.468 59.4C234.468 59.168 234.316 59.032 234.02 59.032H233.62V59.76H234.02C234.316 59.76 234.468 59.628 234.468 59.4Z" fill="white"/>
<path d="M237.128 59.4C237.128 59.868 236.78 60.156 236.216 60.156H235.792V60.736H235.308V58.636H236.216C236.8 58.636 237.128 58.928 237.128 59.4ZM236.636 59.4C236.636 59.168 236.488 59.032 236.188 59.032H235.788V59.76H236.188C236.488 59.76 236.636 59.628 236.636 59.4Z" fill="white"/>
<path d="M237.476 58.636H237.964V60.34H239.016V60.74H237.476V58.636Z" fill="white"/>
<path d="M240.084 60V60.744H239.6V60L238.8 58.648H239.316L239.876 59.58L240.44 58.648H240.916L240.084 60Z" fill="white"/>
<path d="M243.884 58.636V60.736H243.484L242.436 59.46V60.736H241.956V58.636H242.356L243.4 59.912V58.636H243.884Z" fill="white"/>
<path d="M244.252 59.688C244.238 59.4576 244.294 59.2284 244.412 59.0301C244.531 58.8318 244.706 58.6736 244.915 58.576C245.124 58.4784 245.358 58.4459 245.586 58.4827C245.814 58.5195 246.025 58.6239 246.193 58.7824C246.361 58.9409 246.477 59.1461 246.527 59.3715C246.577 59.5969 246.558 59.8321 246.472 60.0465C246.387 60.2609 246.239 60.4447 246.048 60.5741C245.856 60.7034 245.631 60.7724 245.4 60.772C245.252 60.7807 245.105 60.7592 244.966 60.7086C244.827 60.6581 244.699 60.5796 244.592 60.4781C244.484 60.3765 244.399 60.254 244.34 60.1182C244.282 59.9823 244.252 59.8359 244.252 59.688ZM246.06 59.688C246.058 59.558 246.017 59.4316 245.943 59.3247C245.869 59.2177 245.765 59.135 245.644 59.0869C245.524 59.0387 245.391 59.0274 245.264 59.0542C245.137 59.081 245.02 59.1448 244.929 59.2375C244.838 59.3303 244.776 59.4479 244.752 59.5756C244.727 59.7033 244.741 59.8354 244.791 59.9553C244.842 60.0752 244.926 60.1775 245.035 60.2495C245.143 60.3216 245.27 60.36 245.4 60.36C245.488 60.3623 245.576 60.3464 245.658 60.3132C245.74 60.2801 245.814 60.2305 245.876 60.1675C245.938 60.1044 245.986 60.0293 246.018 59.9469C246.05 59.8644 246.064 59.7763 246.06 59.688Z" fill="white"/>
<path d="M250.028 58.636L249.34 60.736H248.8L248.34 59.312L247.86 60.736H247.34L246.652 58.636H247.156L247.628 60.112L248.124 58.636H248.576L249.056 60.124L249.544 58.636H250.028Z" fill="white"/>
</svg>
